<svg width="324" height="121" viewBox="0 0 324 121" fill="none" xmlns="http://www.w3.org/2000/svg">
<path d="M17.4883 65.1749V94.5439C17.4883 97.9991 18.4087 100.686 20.1883 102.478C21.9678 104.27 24.545 105.229 27.9813 105.229C31.4176 105.229 33.9948 104.334 35.7743 102.478C37.6152 100.686 38.4743 97.9991 38.4743 94.5439V65.1749H55.8399V95.4397C55.8399 103.758 53.324 109.964 48.2923 114.187C43.2605 118.41 36.4493 120.522 27.9199 120.522C19.3906 120.522 12.5793 118.41 7.54758 114.187C2.51586 109.964 0 103.694 0 95.4397V65.1749H17.4269H17.4883Z" fill="#F27C00"/>
<path d="M62.5897 105.229L78.9121 99.5347C79.7712 101.582 81.5507 103.246 84.2506 104.589C86.9506 105.933 90.0801 106.573 93.7618 106.573C100.88 106.573 104.439 105.229 104.439 102.606C104.439 101.198 103.457 100.238 101.555 99.6626C99.5913 99.0868 95.8482 98.5749 90.3256 98.191C73.5122 96.9113 65.1669 91.4726 65.1669 81.9389C65.1669 76.5642 67.6214 72.1492 72.4691 68.7581C77.3781 65.3669 84.0052 63.6393 92.4119 63.6393C99.5913 63.6393 105.789 64.983 110.943 67.6063C116.159 70.2297 119.78 73.5569 121.743 77.6519L105.421 83.8584C104.868 82.0029 103.457 80.5312 101.187 79.5075C98.9163 78.4837 95.9709 77.9079 92.4119 77.9079C89.7733 77.9079 87.5642 78.2278 85.8461 78.8036C84.1279 79.4435 83.2689 80.2113 83.2689 81.2351C83.2689 82.1308 84.1279 82.7707 85.7847 83.2826C87.5029 83.7944 90.6323 84.2423 95.1732 84.6902C99.3458 85.0741 103.028 85.586 106.218 86.3538C109.409 87.1216 112.232 88.1454 114.748 89.4891C117.264 90.8328 119.166 92.5603 120.455 94.7358C121.743 96.9113 122.418 99.4067 122.418 102.35C122.418 105.549 121.682 108.429 120.148 110.86C118.614 113.291 116.527 115.211 113.766 116.683C111.066 118.09 107.937 119.178 104.5 119.882C101.064 120.586 97.1981 120.906 92.9641 120.906C85.8461 120.906 79.6485 119.498 74.31 116.683C69.0328 113.867 65.1055 110.092 62.5283 105.293L62.5897 105.229Z" fill="#F27C00"/>
<path d="M43.4446 1.4769L66.5169 55.224H47.3105L41.9106 41.7872H24.4836L19.0837 55.224H0L22.9496 1.4769H43.4446ZM37.7993 28.6064L33.3198 17.0252H33.1971L28.6563 28.6064H37.8606H37.7993Z" fill="#F27C00"/>
<path d="M108.243 55.224H73.3892V1.4769H105.42C111.618 1.4769 116.404 2.69261 119.779 5.06004C123.154 7.49146 124.872 10.8826 124.872 15.3616C124.872 19.2646 123.4 22.4639 120.516 25.0233C123.031 26.4309 125.056 28.2865 126.59 30.7179C128.124 33.1493 128.922 35.8367 128.922 38.716C128.922 43.9627 127.143 47.9937 123.522 50.873C119.963 53.7524 114.809 55.16 108.182 55.16L108.243 55.224ZM104.132 14.2738H90.8161V21.1842H104.5C106.832 21.0562 107.936 19.9045 107.936 17.729C107.936 16.6413 107.568 15.8095 106.893 15.1696C106.218 14.5298 105.298 14.2738 104.07 14.2738H104.132ZM106.279 33.3413H90.8161V42.4911H106.586C108.059 42.4911 109.225 42.1072 110.084 41.2753C110.943 40.5075 111.373 39.3558 111.373 37.9481C111.373 36.5405 110.943 35.3888 110.023 34.557C109.102 33.7252 107.875 33.3413 106.279 33.3413Z" fill="#F27C00"/>
<path d="M134.2 28.4784C134.2 19.5845 137.084 12.6102 142.913 7.61939C148.743 2.62859 156.474 0.0691986 166.231 0.0691986C175.988 0.0691986 183.719 2.5646 189.549 7.61939C195.378 12.6102 198.262 19.5845 198.262 28.4784C198.262 37.3722 195.378 44.4106 189.549 49.4653C183.719 54.4561 175.988 57.0155 166.231 57.0155C156.474 57.0155 148.743 54.5201 142.913 49.4653C137.084 44.4745 134.2 37.4362 134.2 28.4784ZM176.54 18.7527C173.963 16.4493 170.526 15.3615 166.231 15.3615C161.936 15.3615 158.561 16.5133 155.983 18.7527C153.406 21.0562 152.118 24.2554 152.118 28.4784C152.118 32.7014 153.406 35.9006 155.983 38.204C158.561 40.5075 161.997 41.6592 166.231 41.6592C170.465 41.6592 173.963 40.5075 176.54 38.204C179.117 35.9006 180.467 32.6374 180.467 28.4784C180.467 24.3194 179.178 21.0562 176.54 18.7527Z" fill="#F27C00"/>
<path d="M222.501 1.4769V30.8459C222.501 34.301 223.421 36.9884 225.2 38.7799C226.98 40.5715 229.557 41.5313 232.993 41.5313C236.43 41.5313 239.007 40.6355 240.787 38.7799C242.627 36.9884 243.486 34.301 243.486 30.8459V1.4769H260.852V31.7416C260.852 40.0596 258.336 46.2662 253.304 50.4891C248.273 54.7121 241.462 56.8236 232.932 56.8236C224.403 56.8236 217.592 54.7121 212.56 50.4891C207.528 46.2662 205.012 39.9957 205.012 31.7416V1.4769H222.439H222.501Z" fill="#F27C00"/>
<path d="M323.626 16.8332H303.499V55.224H286.133V16.8332H266.006V1.4769H323.564V16.8332H323.626Z" fill="#F27C00"/>
</svg>
