<svg width="1232" height="144" viewBox="0 0 1232 144" fill="none" xmlns="http://www.w3.org/2000/svg">
<path d="M113.398 3.83856L173.62 138.185H123.488L109.394 104.599H63.9064L49.8118 138.185H0L59.9022 3.83856H113.398ZM98.6625 71.6517L86.9704 42.7032H86.65L74.7977 71.6517H98.8227H98.6625Z" fill="#F27C00"/>
<path d="M282.534 138.185H191.559V3.83856H275.166C291.343 3.83856 303.836 6.87736 312.645 12.795C321.454 18.8726 325.939 27.3493 325.939 38.5448C325.939 48.301 322.095 56.2978 314.567 62.6953C321.134 66.2139 326.419 70.852 330.423 76.9296C334.428 83.0072 336.51 89.7246 336.51 96.9217C336.51 110.037 331.865 120.113 322.415 127.31C313.125 134.507 299.671 138.025 282.373 138.025L282.534 138.185ZM271.802 35.8259H237.046V53.0991H272.763C278.85 52.7792 281.733 49.9003 281.733 44.4625C281.733 41.7436 280.772 39.6644 279.01 38.065C277.248 36.4656 274.846 35.8259 271.642 35.8259H271.802ZM277.408 83.487H237.046V106.358H278.209C282.053 106.358 285.096 105.398 287.339 103.319C289.581 101.4 290.702 98.5211 290.702 95.0025C290.702 91.4839 289.581 88.605 287.178 86.5258C284.776 84.4467 281.573 83.487 277.408 83.487Z" fill="#F27C00"/>
<path d="M350.284 71.3318C350.284 49.1006 357.812 31.6675 373.028 19.1924C388.244 6.71735 408.425 0.319885 433.891 0.319885C459.358 0.319885 479.538 6.55742 494.754 19.1924C509.97 31.6675 517.498 49.1006 517.498 71.3318C517.498 93.563 509.97 111.156 494.754 123.791C479.538 136.266 459.358 142.664 433.891 142.664C408.425 142.664 388.244 136.426 373.028 123.791C357.812 111.316 350.284 93.7229 350.284 71.3318ZM460.799 47.0214C454.072 41.2637 445.103 38.5448 433.891 38.5448C422.679 38.5448 413.87 41.4236 407.143 47.0214C400.416 52.7791 397.053 60.776 397.053 71.3318C397.053 81.8876 400.416 89.8844 407.143 95.6422C413.87 101.4 422.84 104.279 433.891 104.279C444.943 104.279 454.072 101.4 460.799 95.6422C467.526 89.8844 471.05 81.7277 471.05 71.3318C471.05 60.9359 467.686 52.7791 460.799 47.0214Z" fill="#F27C00"/>
<path d="M580.764 3.83856V77.2495C580.764 85.8861 583.166 92.6034 587.811 97.0816C592.456 101.56 599.183 103.959 608.152 103.959C617.121 103.959 623.848 101.72 628.493 97.0816C633.298 92.6034 635.541 85.8861 635.541 77.2495V3.83856H680.868V79.4886C680.868 100.28 674.301 115.794 661.167 126.35C648.034 136.906 630.255 142.184 607.992 142.184C585.729 142.184 567.95 136.906 554.817 126.35C541.683 115.794 535.116 100.12 535.116 79.4886V3.83856H580.603H580.764Z" fill="#F27C00"/>
<path d="M844.718 42.2234H792.183V138.185H746.856V42.2234H694.322V3.83856H844.558V42.2234H844.718Z" fill="#F27C00"/>
<path d="M958.116 3.83856V77.2495C958.116 85.8861 960.519 92.6034 965.164 97.0816C969.808 101.56 976.535 103.959 985.505 103.959C994.474 103.959 1001.2 101.72 1005.85 97.0816C1010.65 92.6034 1012.89 85.8861 1012.89 77.2495V3.83856H1058.22V79.4886C1058.22 100.28 1051.65 115.794 1038.52 126.35C1025.39 136.906 1007.61 142.184 985.345 142.184C963.081 142.184 945.303 136.906 932.169 126.35C919.036 115.794 912.469 100.12 912.469 79.4886V3.83856H957.956H958.116Z" fill="#F27C00"/>
<path d="M1075.84 103.959L1118.44 89.7245C1120.68 94.8425 1125.33 99.0008 1132.38 102.359C1139.42 105.718 1147.59 107.318 1157.2 107.318C1175.78 107.318 1185.07 103.959 1185.07 97.4014C1185.07 93.8828 1182.51 91.4838 1177.54 90.0443C1172.42 88.6049 1162.65 87.3254 1148.23 86.3658C1104.35 83.1671 1082.56 69.5725 1082.56 45.7419C1082.56 32.3072 1088.97 21.2716 1101.62 12.7949C1114.44 4.31829 1131.74 0 1153.68 0C1172.42 0 1188.6 3.35867 1202.05 9.91607C1215.66 16.4735 1225.11 24.7902 1230.24 35.0261L1187.63 50.54C1186.19 45.9018 1182.51 42.2233 1176.58 39.6643C1170.66 37.1053 1162.97 35.6659 1153.68 35.6659C1146.79 35.6659 1141.03 36.4656 1136.54 37.905C1132.06 39.5044 1129.81 41.4236 1129.81 43.9826C1129.81 46.2217 1132.06 47.8211 1136.38 49.1006C1140.87 50.3801 1149.03 51.4996 1160.89 52.6192C1171.78 53.5788 1181.39 54.8583 1189.72 56.7775C1198.04 58.6968 1205.41 61.2557 1211.98 64.6144C1218.55 67.9731 1223.51 72.2914 1226.87 77.7292C1230.24 83.1671 1232 89.4046 1232 96.7617C1232 104.759 1230.08 111.956 1226.07 118.033C1222.07 124.111 1216.62 128.909 1209.42 132.588C1202.37 136.106 1194.2 138.825 1185.23 140.584C1176.26 142.344 1166.17 143.143 1155.12 143.143C1136.54 143.143 1120.36 139.625 1106.43 132.588C1092.66 125.55 1082.4 116.114 1075.68 104.119L1075.84 103.959Z" fill="#F27C00"/>
</svg>
