<svg width="636" height="142" viewBox="0 0 636 142" fill="none" xmlns="http://www.w3.org/2000/svg">
<path d="M90.647 137.135H1V4.69431H83.3869C99.3276 4.69431 111.638 7.68999 120.319 13.5237C129 19.515 133.419 27.8714 133.419 38.9081C133.419 48.5259 129.631 56.4092 122.213 62.7159C128.684 66.1846 133.892 70.757 137.838 76.7483C141.784 82.7397 143.835 89.3617 143.835 96.4568C143.835 109.386 139.258 119.319 129.946 126.414C120.792 133.509 107.535 136.977 90.4892 136.977L90.647 137.135ZM80.0724 36.2278H45.6657V53.2559H80.8616C86.8591 52.9406 89.7 50.1025 89.7 44.7418C89.7 42.0615 88.7531 40.0118 87.0169 38.4351C85.2808 36.8585 82.9134 36.2278 79.7568 36.2278H80.0724ZM85.5965 83.2127H45.6657V105.759H86.2278C90.0157 105.759 93.0144 104.813 95.2241 102.763C97.4337 100.871 98.5385 98.0334 98.5385 94.5648C98.5385 91.0961 97.4337 88.2581 95.0662 86.2084C92.6988 84.1587 89.5422 83.2127 85.4386 83.2127H85.5965Z" fill="#F27C00" stroke="#1D1D1B" stroke-width="0.14" stroke-miterlimit="10"/>
<path d="M168.614 137.135V4.69431H213.28V99.4525H288.88V137.135H168.614Z" fill="#F27C00" stroke="#1D1D1B" stroke-width="0.14" stroke-miterlimit="10"/>
<path d="M299.297 71.0723C299.297 49.1565 306.715 31.9708 321.709 19.6727C336.702 7.37466 356.589 1.06796 381.684 1.06796C406.779 1.06796 426.665 7.21699 441.659 19.6727C456.653 31.9708 464.071 49.1565 464.071 71.0723C464.071 92.9881 456.653 110.332 441.659 122.787C426.665 135.085 406.779 141.392 381.684 141.392C356.589 141.392 336.702 135.243 321.709 122.787C306.715 110.489 299.297 93.1458 299.297 71.0723ZM408.199 47.1069C401.57 41.4308 392.732 38.7505 381.684 38.7505C370.636 38.7505 361.955 41.5885 355.326 47.1069C348.697 52.7829 345.383 60.6663 345.383 71.0723C345.383 81.4784 348.697 89.3618 355.326 95.0378C361.955 100.714 370.794 103.552 381.684 103.552C392.574 103.552 401.57 100.714 408.199 95.0378C414.828 89.3618 418.3 81.3207 418.3 71.0723C418.3 60.8239 414.986 52.7829 408.199 47.1069Z" fill="#F27C00" stroke="#1D1D1B" stroke-width="0.14" stroke-miterlimit="10"/>
<path d="M630.896 33.3898C628.686 34.3358 621.426 37.3315 608.8 42.2192C596.174 47.1069 588.913 49.9449 587.177 50.5756C585.757 46.0032 582.442 42.3768 577.234 39.8542C572.026 37.3315 565.555 35.9125 557.821 35.9125C546.931 35.9125 538.25 38.9082 531.464 45.0572C524.835 51.2062 521.363 59.5626 521.363 70.284C521.363 76.433 522.467 81.9514 524.677 86.5237C526.887 91.2538 529.885 94.8801 533.673 97.4028C537.461 99.9255 541.565 101.817 545.826 103.079C550.087 104.34 554.664 104.813 559.399 104.813C567.291 104.813 574.077 103.394 579.917 100.556C585.757 97.7181 589.703 93.7764 591.597 88.5734V85.5777H537.619L549.614 54.3596H635V136.977H595.542V125.941C583.547 135.716 568.869 140.446 551.35 140.446C529.57 140.446 511.419 134.297 496.899 121.841C482.379 109.543 475.276 92.5151 475.276 70.757C475.276 48.9989 483.01 32.1285 498.319 19.5151C513.787 6.90166 533.673 0.752625 558.137 0.752625C575.34 0.752625 590.176 3.74831 602.645 9.582C615.113 15.4157 624.425 23.2991 630.738 33.0745L630.896 33.3898Z" fill="#F27C00" stroke="#1D1D1B" stroke-width="0.14" stroke-miterlimit="10"/>
</svg>
