<svg width="1410" height="133" viewBox="0 0 1410 133" fill="none" xmlns="http://www.w3.org/2000/svg">
<path d="M144.627 34.1289L107.479 52.8778C103.221 41.8921 93.3833 36.3261 77.6726 36.3261C67.3946 36.3261 59.319 38.9626 53.1522 44.0893C46.9853 49.3624 43.9019 56.6862 43.9019 66.3536C43.9019 76.021 46.9853 83.3448 53.1522 88.6179C59.319 93.891 67.5414 96.5276 77.6726 96.5276C93.2365 96.5276 103.221 90.9615 107.919 79.6829L145.067 98.4318C139.488 108.099 130.972 116.155 119.225 122.307C107.479 128.459 93.677 131.535 77.5258 131.535C54.3268 131.535 35.6795 125.823 21.7307 114.251C7.9288 102.973 1.02783 86.8602 1.02783 66.3536C1.02783 45.847 7.9288 30.0276 21.8776 18.6025C35.8263 7.17739 54.4736 1.31836 77.6726 1.31836C93.677 1.31836 107.479 4.39435 118.932 10.3999C130.531 16.5518 139.047 24.3151 144.627 33.9825V34.1289Z" fill="#F27C00" stroke="#1D1D1B" stroke-width="0.14" stroke-miterlimit="10"/>
<path d="M152.702 66.3536C152.702 45.9935 159.603 30.0276 173.552 18.6025C187.501 7.17739 206.148 1.31836 229.347 1.31836C252.546 1.31836 271.193 7.03091 285.142 18.6025C299.091 30.0276 305.992 45.9935 305.992 66.3536C305.992 86.7137 299.091 102.826 285.142 114.398C271.193 125.823 252.693 131.682 229.347 131.682C206.001 131.682 187.501 125.969 173.552 114.398C159.603 102.973 152.702 86.8602 152.702 66.3536ZM254.014 44.0893C247.848 38.8162 239.625 36.3261 229.347 36.3261C219.069 36.3261 210.993 38.9626 204.827 44.0893C198.66 49.3624 195.576 56.6862 195.576 66.3536C195.576 76.021 198.66 83.3448 204.827 88.6179C210.993 93.891 219.216 96.5276 229.347 96.5276C239.478 96.5276 247.848 93.891 254.014 88.6179C260.181 83.3448 263.411 75.8745 263.411 66.3536C263.411 56.8327 260.328 49.3624 254.014 44.0893Z" fill="#F27C00" stroke="#1D1D1B" stroke-width="0.14" stroke-miterlimit="10"/>
<path d="M414.058 127.727L367.22 57.4183V127.727H326.989V4.68701H377.791L424.63 75.1419V4.68701H464.861V127.727H414.058Z" fill="#F27C00" stroke="#1D1D1B" stroke-width="0.14" stroke-miterlimit="10"/>
<path d="M619.472 39.8412H571.312V127.727H529.759V39.8412H481.599V4.68701H619.325V39.8412H619.472Z" fill="#F27C00" stroke="#1D1D1B" stroke-width="0.14" stroke-miterlimit="10"/>
<path d="M706.982 4.68701L762.19 127.727H716.233L703.312 96.9667H661.612L648.691 127.727H603.027L658.088 4.68701H707.129H706.982ZM693.474 66.7927L682.756 40.2806H682.462L671.597 66.7927H693.621H693.474Z" fill="#F27C00" stroke="#1D1D1B" stroke-width="0.14" stroke-miterlimit="10"/>
<path d="M911.956 34.1289L874.808 52.8778C870.55 41.8921 860.712 36.3261 845.002 36.3261C834.724 36.3261 826.648 38.9626 820.481 44.0893C814.314 49.3624 811.231 56.6862 811.231 66.3536C811.231 76.021 814.314 83.3448 820.481 88.6179C826.648 93.891 834.87 96.5276 845.002 96.5276C860.565 96.5276 870.55 90.9615 875.248 79.6829L912.396 98.4318C906.817 108.099 898.301 116.155 886.554 122.307C874.808 128.459 861.006 131.535 844.855 131.535C821.656 131.535 803.008 125.823 789.06 114.251C775.111 102.826 768.21 86.7137 768.21 66.2071C768.21 45.7005 775.111 29.8811 789.06 18.456C803.008 7.03091 821.509 1.17188 844.855 1.17188C860.859 1.17188 874.661 4.24787 886.114 10.2534C897.713 16.4054 906.229 24.1686 911.809 33.836L911.956 34.1289Z" fill="#F27C00" stroke="#1D1D1B" stroke-width="0.14" stroke-miterlimit="10"/>
<path d="M1053.79 39.8412H1005.63V127.727H964.08V39.8412H915.92V4.68701H1053.65V39.8412H1053.79Z" fill="#F27C00" stroke="#1D1D1B" stroke-width="0.14" stroke-miterlimit="10"/>
<path d="M1157.75 4.68701V71.9194C1157.75 79.8291 1159.95 85.9811 1164.21 90.0824C1168.47 94.1837 1174.63 96.3808 1182.86 96.3808C1191.08 96.3808 1197.24 94.3302 1201.5 90.0824C1205.91 85.9811 1207.96 79.8291 1207.96 71.9194V4.68701H1249.52V73.9701C1249.52 93.0119 1243.5 107.22 1231.46 116.887C1219.42 126.555 1203.12 131.389 1182.71 131.389C1162.3 131.389 1146 126.555 1133.96 116.887C1121.92 107.22 1115.9 92.8654 1115.9 73.9701V4.68701H1157.6H1157.75Z" fill="#F27C00" stroke="#1D1D1B" stroke-width="0.14" stroke-miterlimit="10"/>
<path d="M1265.81 96.2346L1304.87 83.1983C1306.93 87.8855 1311.18 91.6939 1317.64 94.7699C1324.1 97.8459 1331.59 99.3106 1340.4 99.3106C1357.44 99.3106 1365.95 96.2346 1365.95 90.2291C1365.95 87.0067 1363.6 84.8095 1359.05 83.4912C1354.35 82.173 1345.4 81.0012 1332.18 80.1223C1291.95 77.1928 1271.98 64.7424 1271.98 42.9175C1271.98 30.6135 1277.85 20.5067 1289.45 12.7435C1301.2 4.98024 1317.06 1.02539 1337.17 1.02539C1354.35 1.02539 1369.18 4.10138 1381.52 10.1069C1394 16.1124 1402.66 23.7291 1407.36 33.1036L1368.3 47.3117C1366.98 43.0639 1363.6 39.695 1358.17 37.3514C1352.74 35.0078 1345.69 33.6895 1337.17 33.6895C1330.86 33.6895 1325.57 34.4219 1321.46 35.7402C1317.35 37.2049 1315.3 38.9626 1315.3 41.3062C1315.3 43.3569 1317.35 44.8216 1321.32 45.9935C1325.43 47.1653 1332.91 48.1906 1343.78 49.2159C1353.76 50.0948 1362.57 51.2666 1370.21 53.0243C1377.84 54.782 1384.6 57.1256 1390.62 60.2016C1396.64 63.2776 1401.19 67.2324 1404.27 72.2126C1407.36 77.1928 1408.97 82.9053 1408.97 89.6432C1408.97 96.967 1407.21 103.558 1403.54 109.125C1399.87 114.691 1394.88 119.085 1388.27 122.454C1381.81 125.676 1374.32 128.166 1366.1 129.778C1357.88 131.389 1348.63 132.121 1338.49 132.121C1321.46 132.121 1306.63 128.899 1293.86 122.454C1281.23 116.009 1271.83 107.367 1265.67 96.3811L1265.81 96.2346Z" fill="#F27C00" stroke="#1D1D1B" stroke-width="0.14" stroke-miterlimit="10"/>
</svg>
