<svg width="1409" height="410" viewBox="0 0 1409 410" fill="none" xmlns="http://www.w3.org/2000/svg">
<path d="M48.98 111.867L0.469971 8.967H27.959L63.68 86.583L99.401 8.967H126.743L78.233 111.867H48.98Z" fill="#00005E"/>
<path d="M140.106 111.867V34.104H163.92V111.867H140.106ZM139.812 20.58V0H164.067V20.58H139.812Z" fill="#00005E"/>
<path d="M181.743 73.059C181.743 60.221 185.614 50.225 193.356 43.071C201.098 35.819 211.486 32.193 224.52 32.193C235.496 32.193 244.659 35.182 252.009 41.16V1.617H275.823V111.867H252.45V104.811C244.904 110.789 235.594 113.778 224.52 113.778C211.584 113.778 201.196 110.201 193.356 103.047C185.614 95.795 181.743 85.799 181.743 73.059ZM205.851 73.059C205.851 79.527 207.909 84.476 212.025 87.906C216.239 91.336 221.874 93.051 228.93 93.051C235.888 93.051 241.425 91.336 245.541 87.906C249.755 84.476 251.862 79.576 251.862 73.206C251.862 66.738 249.755 61.789 245.541 58.359C241.425 54.831 235.888 53.067 228.93 53.067C221.874 53.067 216.239 54.831 212.025 58.359C207.909 61.789 205.851 66.689 205.851 73.059Z" fill="#00005E"/>
<path d="M306.805 103.047C297.887 95.795 293.428 85.799 293.428 73.059C293.428 60.319 297.789 50.372 306.511 43.218C315.233 35.966 326.895 32.34 341.497 32.34C356.099 32.34 367.761 35.966 376.483 43.218C385.205 50.372 389.566 60.319 389.566 73.059V78.351H317.83C319.006 83.251 321.897 86.975 326.503 89.523C331.109 92.071 336.793 93.345 343.555 93.345C348.847 93.345 353.649 92.512 357.961 90.846C362.371 89.18 365.507 86.877 367.369 83.937L387.214 94.815C383.196 100.695 377.316 105.35 369.574 108.78C361.832 112.112 353.159 113.778 343.555 113.778C328.071 113.778 315.821 110.201 306.805 103.047ZM363.694 62.475C359.872 55.223 352.473 51.597 341.497 51.597C330.031 51.597 322.534 55.223 319.006 62.475H363.694Z" fill="#00005E"/>
<path d="M484.149 43.218C492.871 50.372 497.232 60.319 497.232 73.059C497.232 85.799 492.871 95.795 484.149 103.047C475.427 110.201 463.765 113.778 449.163 113.778C434.561 113.778 422.899 110.201 414.177 103.047C405.455 95.795 401.094 85.799 401.094 73.059C401.094 60.319 405.455 50.372 414.177 43.218C422.899 35.966 434.561 32.34 449.163 32.34C463.765 32.34 475.427 35.966 484.149 43.218ZM425.202 73.059C425.202 79.527 427.358 84.476 431.67 87.906C435.982 91.336 441.813 93.051 449.163 93.051C456.513 93.051 462.344 91.336 466.656 87.906C471.066 84.476 473.271 79.527 473.271 73.059C473.271 66.689 471.066 61.789 466.656 58.359C462.344 54.929 456.513 53.214 449.163 53.214C441.813 53.214 435.982 54.929 431.67 58.359C427.358 61.789 425.202 66.689 425.202 73.059Z" fill="#00005E"/>
<path d="M757.906 70.56V82.173C757.906 86.093 758.494 88.837 759.67 90.405C760.846 91.973 762.708 92.757 765.256 92.757C768.294 92.757 771.185 92.365 773.929 91.581L770.842 111.867C767.804 112.945 763.786 113.484 758.788 113.484C747.616 113.484 740.168 108.78 736.444 99.372C728.212 108.976 716.452 113.778 701.164 113.778C692.246 113.778 684.798 111.622 678.82 107.31C672.94 102.9 670 97.069 670 89.817C670 71.491 691.119 62.426 733.357 62.622C731.789 55.958 725.027 52.626 713.071 52.626C701.997 52.626 694.157 55.86 689.551 62.328L671.764 48.657C676.076 43.757 682.25 39.788 690.286 36.75C698.42 33.712 706.75 32.193 715.276 32.193C728.898 32.193 739.384 35.476 746.734 42.042C754.182 48.608 757.906 58.114 757.906 70.56ZM705.868 94.227C712.728 94.227 718.951 92.708 724.537 89.67C730.123 86.632 733.308 82.761 734.092 78.057V77.469C721.058 77.763 711.258 78.645 704.692 80.115C698.224 81.487 694.99 83.986 694.99 87.612C694.99 89.67 695.97 91.287 697.93 92.463C699.89 93.541 702.536 94.129 705.868 94.227Z" fill="#00005E"/>
<path d="M784.247 111.867V34.104H807.62V42.63C814.284 35.77 822.516 32.34 832.316 32.34C836.628 32.34 839.372 32.389 840.548 32.487C841.43 38.759 842.704 46.893 844.37 56.889C841.724 55.419 837.314 54.684 831.14 54.684C824.083 54.684 818.449 56.203 814.235 59.241C810.119 62.279 808.061 66.934 808.061 73.206V111.867H784.247Z" fill="#00005E"/>
<path d="M864.389 103.047C855.471 95.795 851.012 85.799 851.012 73.059C851.012 60.319 855.373 50.372 864.095 43.218C872.817 35.966 884.479 32.34 899.081 32.34C913.683 32.34 925.345 35.966 934.067 43.218C942.789 50.372 947.15 60.319 947.15 73.059V78.351H875.414C876.59 83.251 879.481 86.975 884.087 89.523C888.693 92.071 894.377 93.345 901.139 93.345C906.431 93.345 911.233 92.512 915.545 90.846C919.955 89.18 923.091 86.877 924.953 83.937L944.798 94.815C940.78 100.695 934.9 105.35 927.158 108.78C919.416 112.112 910.743 113.778 901.139 113.778C885.655 113.778 873.405 110.201 864.389 103.047ZM921.278 62.475C917.456 55.223 910.057 51.597 899.081 51.597C887.615 51.597 880.118 55.223 876.59 62.475H921.278Z" fill="#00005E"/>
<path d="M76.028 215.055L96.02 226.815C91.904 232.793 86.122 237.448 78.674 240.78C71.324 244.112 62.945 245.778 53.537 245.778C38.739 245.778 26.93 242.201 18.11 235.047C9.38797 227.795 5.02697 217.799 5.02697 205.059C5.02697 192.319 9.43697 182.372 18.257 175.218C27.077 167.966 38.788 164.34 53.39 164.34C62.798 164.34 71.177 165.957 78.527 169.191C85.877 172.425 91.561 176.933 95.579 182.715L75.293 194.769C71.569 188.399 64.268 185.214 53.39 185.214C46.138 185.214 40.258 186.978 35.75 190.506C31.34 193.936 29.135 198.787 29.135 205.059C29.135 211.527 31.34 216.476 35.75 219.906C40.258 223.336 46.187 225.051 53.537 225.051C58.731 225.051 63.337 224.169 67.355 222.405C71.373 220.641 74.264 218.191 76.028 215.055Z" fill="#00005E"/>
<path d="M110.527 243.867V166.104H133.9V174.63C140.564 167.77 148.796 164.34 158.596 164.34C162.908 164.34 165.652 164.389 166.828 164.487C167.71 170.759 168.984 178.893 170.65 188.889C168.004 187.419 163.594 186.684 157.42 186.684C150.364 186.684 144.729 188.203 140.515 191.241C136.399 194.279 134.341 198.934 134.341 205.206V243.867H110.527Z" fill="#00005E"/>
<path d="M270.05 166.104V243.867H246.677V235.341C239.327 242.201 229.625 245.631 217.571 245.631C206.595 245.631 197.726 242.691 190.964 236.811C184.3 230.931 180.968 223.14 180.968 213.438V166.104H204.782V208.587C204.782 213.781 206.35 217.799 209.486 220.641C212.622 223.483 217.228 224.904 223.304 224.904C229.478 224.904 234.77 223.238 239.18 219.906C243.688 216.574 246.04 211.968 246.236 206.088V166.104H270.05Z" fill="#00005E"/>
<path d="M358.687 215.055L378.679 226.815C374.563 232.793 368.781 237.448 361.333 240.78C353.983 244.112 345.604 245.778 336.196 245.778C321.398 245.778 309.589 242.201 300.769 235.047C292.047 227.795 287.686 217.799 287.686 205.059C287.686 192.319 292.096 182.372 300.916 175.218C309.736 167.966 321.447 164.34 336.049 164.34C345.457 164.34 353.836 165.957 361.186 169.191C368.536 172.425 374.22 176.933 378.238 182.715L357.952 194.769C354.228 188.399 346.927 185.214 336.049 185.214C328.797 185.214 322.917 186.978 318.409 190.506C313.999 193.936 311.794 198.787 311.794 205.059C311.794 211.527 313.999 216.476 318.409 219.906C322.917 223.336 328.846 225.051 336.196 225.051C341.39 225.051 345.996 224.169 350.014 222.405C354.032 220.641 356.923 218.191 358.687 215.055Z" fill="#00005E"/>
<path d="M393.48 243.867V166.104H417.294V243.867H393.48ZM393.186 152.58V132H417.441V152.58H393.186Z" fill="#00005E"/>
<path d="M523.464 202.56V214.173C523.464 218.093 524.052 220.837 525.228 222.405C526.404 223.973 528.266 224.757 530.814 224.757C533.852 224.757 536.743 224.365 539.487 223.581L536.4 243.867C533.362 244.945 529.344 245.484 524.346 245.484C513.174 245.484 505.726 240.78 502.002 231.372C493.77 240.976 482.01 245.778 466.722 245.778C457.804 245.778 450.356 243.622 444.378 239.31C438.498 234.9 435.558 229.069 435.558 221.817C435.558 203.491 456.677 194.426 498.915 194.622C497.347 187.958 490.585 184.626 478.629 184.626C467.555 184.626 459.715 187.86 455.109 194.328L437.322 180.657C441.634 175.757 447.808 171.788 455.844 168.75C463.978 165.712 472.308 164.193 480.834 164.193C494.456 164.193 504.942 167.476 512.292 174.042C519.74 180.608 523.464 190.114 523.464 202.56ZM471.426 226.227C478.286 226.227 484.509 224.708 490.095 221.67C495.681 218.632 498.866 214.761 499.65 210.057V209.469C486.616 209.763 476.816 210.645 470.25 212.115C463.782 213.487 460.548 215.986 460.548 219.612C460.548 221.67 461.528 223.287 463.488 224.463C465.448 225.541 468.094 226.129 471.426 226.227Z" fill="#00005E"/>
<path d="M549.804 243.867V133.617H573.618V243.867H549.804Z" fill="#00005E"/>
<path d="M631.28 187.566V167.427H645.098V156.99L668.912 141.114V167.427H684.935V187.566H668.912V214.32C668.912 218.24 669.5 220.984 670.676 222.552C671.852 224.022 673.861 224.757 676.703 224.757C679.251 224.757 682.485 224.316 686.405 223.434L683.171 243.72C679.251 244.896 674.89 245.484 670.088 245.484C661.562 245.484 655.241 243.181 651.125 238.575C647.107 233.969 645.098 226.766 645.098 216.966V187.566H631.28Z" fill="#00005E"/>
<path d="M780.877 175.218C789.599 182.372 793.96 192.319 793.96 205.059C793.96 217.799 789.599 227.795 780.877 235.047C772.155 242.201 760.493 245.778 745.891 245.778C731.289 245.778 719.627 242.201 710.905 235.047C702.183 227.795 697.822 217.799 697.822 205.059C697.822 192.319 702.183 182.372 710.905 175.218C719.627 167.966 731.289 164.34 745.891 164.34C760.493 164.34 772.155 167.966 780.877 175.218ZM721.93 205.059C721.93 211.527 724.086 216.476 728.398 219.906C732.71 223.336 738.541 225.051 745.891 225.051C753.241 225.051 759.072 223.336 763.384 219.906C767.794 216.476 769.999 211.527 769.999 205.059C769.999 198.689 767.794 193.789 763.384 190.359C759.072 186.929 753.241 185.214 745.891 185.214C738.541 185.214 732.71 186.929 728.398 190.359C724.086 193.789 721.93 198.689 721.93 205.059Z" fill="#00005E"/>
<path d="M806.206 205.059C806.206 192.221 810.077 182.225 817.819 175.071C825.561 167.819 835.949 164.193 848.983 164.193C859.959 164.193 869.122 167.182 876.472 173.16V133.617H900.286V243.867H876.913V236.811C869.367 242.789 860.057 245.778 848.983 245.778C836.047 245.778 825.659 242.201 817.819 235.047C810.077 227.795 806.206 217.799 806.206 205.059ZM830.314 205.059C830.314 211.527 832.372 216.476 836.488 219.906C840.702 223.336 846.337 225.051 853.393 225.051C860.351 225.051 865.888 223.336 870.004 219.906C874.218 216.476 876.325 211.576 876.325 205.206C876.325 198.738 874.218 193.789 870.004 190.359C865.888 186.831 860.351 185.067 853.393 185.067C846.337 185.067 840.702 186.831 836.488 190.359C832.372 193.789 830.314 198.689 830.314 205.059Z" fill="#00005E"/>
<path d="M1006.24 202.56V214.173C1006.24 218.093 1006.83 220.837 1008 222.405C1009.18 223.973 1011.04 224.757 1013.59 224.757C1016.63 224.757 1019.52 224.365 1022.26 223.581L1019.17 243.867C1016.14 244.945 1012.12 245.484 1007.12 245.484C995.948 245.484 988.5 240.78 984.776 231.372C976.544 240.976 964.784 245.778 949.496 245.778C940.578 245.778 933.13 243.622 927.152 239.31C921.272 234.9 918.332 229.069 918.332 221.817C918.332 203.491 939.451 194.426 981.689 194.622C980.121 187.958 973.359 184.626 961.403 184.626C950.329 184.626 942.489 187.86 937.883 194.328L920.096 180.657C924.408 175.757 930.582 171.788 938.618 168.75C946.752 165.712 955.082 164.193 963.608 164.193C977.23 164.193 987.716 167.476 995.066 174.042C1002.51 180.608 1006.24 190.114 1006.24 202.56ZM954.2 226.227C961.06 226.227 967.283 224.708 972.869 221.67C978.455 218.632 981.64 214.761 982.424 210.057V209.469C969.39 209.763 959.59 210.645 953.024 212.115C946.556 213.487 943.322 215.986 943.322 219.612C943.322 221.67 944.302 223.287 946.262 224.463C948.222 225.541 950.868 226.129 954.2 226.227Z" fill="#00005E"/>
<path d="M1125.48 166.104L1084.91 251.511C1080.3 260.919 1075.5 267.632 1070.5 271.65C1065.51 275.668 1059.53 277.677 1052.57 277.677C1050.12 277.677 1046.94 277.187 1043.02 276.207L1039.19 254.598C1042.04 255.48 1044.73 255.921 1047.28 255.921C1053.16 255.921 1057.67 253.765 1060.8 249.453L1061.54 248.277C1062.13 247.591 1062.47 247.15 1062.57 246.954L1021.41 166.104H1047.28L1074.91 220.641L1100.05 166.104H1125.48Z" fill="#00005E"/>
<path d="M1207.23 164.193C1207.23 164.585 1207.23 165.222 1207.23 166.104C1207.32 166.888 1207.37 167.525 1207.37 168.015H1222.95V188.154H1207.37V243.867H1183.56V188.154H1171.5V168.015H1183.56V163.311C1183.56 153.511 1185.81 146.063 1190.32 140.967C1194.93 135.773 1201.49 133.176 1210.02 133.176C1214.62 133.176 1218.84 133.813 1222.66 135.087L1225.89 155.814C1222.37 154.54 1219.08 153.903 1216.05 153.903C1210.17 153.903 1207.23 157.333 1207.23 164.193Z" fill="#00005E"/>
<path d="M1317.34 175.218C1326.06 182.372 1330.42 192.319 1330.42 205.059C1330.42 217.799 1326.06 227.795 1317.34 235.047C1308.62 242.201 1296.96 245.778 1282.35 245.778C1267.75 245.778 1256.09 242.201 1247.37 235.047C1238.65 227.795 1234.29 217.799 1234.29 205.059C1234.29 192.319 1238.65 182.372 1247.37 175.218C1256.09 167.966 1267.75 164.34 1282.35 164.34C1296.96 164.34 1308.62 167.966 1317.34 175.218ZM1258.39 205.059C1258.39 211.527 1260.55 216.476 1264.86 219.906C1269.17 223.336 1275 225.051 1282.35 225.051C1289.7 225.051 1295.54 223.336 1299.85 219.906C1304.26 216.476 1306.46 211.527 1306.46 205.059C1306.46 198.689 1304.26 193.789 1299.85 190.359C1295.54 186.929 1289.7 185.214 1282.35 185.214C1275 185.214 1269.17 186.929 1264.86 190.359C1260.55 193.789 1258.39 198.689 1258.39 205.059Z" fill="#00005E"/>
<path d="M1348.26 243.867V166.104H1371.63V174.63C1378.29 167.77 1386.52 164.34 1396.32 164.34C1400.64 164.34 1403.38 164.389 1404.56 164.487C1405.44 170.759 1406.71 178.893 1408.38 188.889C1405.73 187.419 1401.32 186.684 1395.15 186.684C1388.09 186.684 1382.46 188.203 1378.24 191.241C1374.13 194.279 1372.07 198.934 1372.07 205.206V243.867H1348.26Z" fill="#00005E"/>
<path d="M93.374 334.56V346.173C93.374 350.093 93.962 352.837 95.138 354.405C96.314 355.973 98.176 356.757 100.724 356.757C103.762 356.757 106.653 356.365 109.397 355.581L106.31 375.867C103.272 376.945 99.254 377.484 94.256 377.484C83.084 377.484 75.636 372.78 71.912 363.372C63.68 372.976 51.92 377.778 36.632 377.778C27.714 377.778 20.266 375.622 14.288 371.31C8.40797 366.9 5.46797 361.069 5.46797 353.817C5.46797 335.491 26.587 326.426 68.825 326.622C67.257 319.958 60.495 316.626 48.539 316.626C37.465 316.626 29.625 319.86 25.019 326.328L7.23197 312.657C11.544 307.757 17.718 303.788 25.754 300.75C33.888 297.712 42.218 296.193 50.744 296.193C64.366 296.193 74.852 299.476 82.202 306.042C89.65 312.608 93.374 322.114 93.374 334.56ZM41.336 358.227C48.196 358.227 54.419 356.708 60.005 353.67C65.591 350.632 68.776 346.761 69.56 342.057V341.469C56.526 341.763 46.726 342.645 40.16 344.115C33.692 345.487 30.458 347.986 30.458 351.612C30.458 353.67 31.438 355.287 33.398 356.463C35.358 357.541 38.004 358.129 41.336 358.227Z" fill="#00005E"/>
<path d="M185.13 375.867V333.237C185.032 328.141 183.415 324.221 180.279 321.477C177.143 318.635 172.537 317.214 166.461 317.214C159.895 317.214 154.456 318.88 150.144 322.212C145.93 325.544 143.725 330.248 143.529 336.324V375.867H119.715V298.104H143.088V306.777C150.34 299.819 160.042 296.34 172.194 296.34C183.072 296.34 191.892 299.329 198.654 305.307C205.416 311.187 208.797 318.978 208.797 328.68V375.867H185.13Z" fill="#00005E"/>
<path d="M323.156 298.104L282.584 383.511C277.978 392.919 273.176 399.632 268.178 403.65C263.18 407.668 257.202 409.677 250.244 409.677C247.794 409.677 244.609 409.187 240.689 408.207L236.867 386.598C239.709 387.48 242.404 387.921 244.952 387.921C250.832 387.921 255.34 385.765 258.476 381.453L259.211 380.277C259.799 379.591 260.142 379.15 260.24 378.954L219.08 298.104H244.952L272.588 352.641L297.725 298.104H323.156Z" fill="#00005E"/>
<path d="M470.901 337.059C470.901 349.799 466.981 359.795 459.141 367.047C451.399 374.201 441.06 377.778 428.124 377.778C416.854 377.778 407.544 374.789 400.194 368.811V375.867H376.821V265.617H400.635V305.16C407.887 299.182 417.05 296.193 428.124 296.193C441.158 296.193 451.546 299.819 459.288 307.071C467.03 314.225 470.901 324.221 470.901 337.059ZM400.782 337.059C400.782 343.527 402.84 348.476 406.956 351.906C411.17 355.336 416.756 357.051 423.714 357.051C430.77 357.051 436.356 355.336 440.472 351.906C444.686 348.476 446.793 343.527 446.793 337.059C446.793 330.689 444.686 325.789 440.472 322.359C436.356 318.831 430.77 317.067 423.714 317.067C416.756 317.067 411.17 318.831 406.956 322.359C402.84 325.789 400.782 330.689 400.782 337.059Z" fill="#00005E"/>
<path d="M575.821 298.104V375.867H552.448V367.341C545.098 374.201 535.396 377.631 523.342 377.631C512.366 377.631 503.497 374.691 496.735 368.811C490.071 362.931 486.739 355.14 486.739 345.438V298.104H510.553V340.587C510.553 345.781 512.121 349.799 515.257 352.641C518.393 355.483 522.999 356.904 529.075 356.904C535.249 356.904 540.541 355.238 544.951 351.906C549.459 348.574 551.811 343.968 552.007 338.088V298.104H575.821Z" fill="#00005E"/>
<path d="M635.353 345.144C609.187 343.086 596.104 335.491 596.104 322.359C596.104 314.225 599.926 307.806 607.57 303.102C615.312 298.398 625.749 296.046 638.881 296.046C648.387 296.046 657.256 297.712 665.488 301.044C673.818 304.376 679.992 308.835 684.01 314.421L663.724 324.858C661.568 321.918 657.942 319.615 652.846 317.949C647.848 316.185 642.409 315.303 636.529 315.303C625.651 315.303 620.212 317.067 620.212 320.595C620.212 322.457 622.025 323.829 625.651 324.711C629.277 325.495 635.598 326.328 644.614 327.21C672.054 329.758 685.774 338.186 685.774 352.494C685.774 360.628 681.707 366.949 673.573 371.457C665.537 375.867 654.659 378.072 640.939 378.072C629.963 378.072 620.065 376.357 611.245 372.927C602.523 369.497 595.761 364.793 590.959 358.815L611.098 347.496C614.136 350.926 618.546 353.67 624.328 355.728C630.11 357.786 636.333 358.815 642.997 358.815C654.855 358.815 660.784 356.708 660.784 352.494C660.784 350.24 658.824 348.672 654.904 347.79C651.082 346.81 644.565 345.928 635.353 345.144Z" fill="#00005E"/>
<path d="M701.549 375.867V298.104H725.363V375.867H701.549ZM701.255 284.58V264H725.51V284.58H701.255Z" fill="#00005E"/>
<path d="M814.186 375.867V333.237C814.088 328.141 812.471 324.221 809.335 321.477C806.199 318.635 801.593 317.214 795.517 317.214C788.951 317.214 783.512 318.88 779.2 322.212C774.986 325.544 772.781 330.248 772.585 336.324V375.867H748.771V298.104H772.144V306.777C779.396 299.819 789.098 296.34 801.25 296.34C812.128 296.34 820.948 299.329 827.71 305.307C834.472 311.187 837.853 318.978 837.853 328.68V375.867H814.186Z" fill="#00005E"/>
<path d="M867.099 367.047C858.181 359.795 853.722 349.799 853.722 337.059C853.722 324.319 858.083 314.372 866.805 307.218C875.527 299.966 887.189 296.34 901.791 296.34C916.393 296.34 928.055 299.966 936.777 307.218C945.499 314.372 949.86 324.319 949.86 337.059V342.351H878.124C879.3 347.251 882.191 350.975 886.797 353.523C891.403 356.071 897.087 357.345 903.849 357.345C909.141 357.345 913.943 356.512 918.255 354.846C922.665 353.18 925.801 350.877 927.663 347.937L947.508 358.815C943.49 364.695 937.61 369.35 929.868 372.78C922.126 376.112 913.453 377.778 903.849 377.778C888.365 377.778 876.115 374.201 867.099 367.047ZM923.988 326.475C920.166 319.223 912.767 315.597 901.791 315.597C890.325 315.597 882.828 319.223 879.3 326.475H923.988Z" fill="#00005E"/>
<path d="M1003.28 345.144C977.117 343.086 964.034 335.491 964.034 322.359C964.034 314.225 967.856 307.806 975.5 303.102C983.242 298.398 993.679 296.046 1006.81 296.046C1016.32 296.046 1025.19 297.712 1033.42 301.044C1041.75 304.376 1047.92 308.835 1051.94 314.421L1031.65 324.858C1029.5 321.918 1025.87 319.615 1020.78 317.949C1015.78 316.185 1010.34 315.303 1004.46 315.303C993.581 315.303 988.142 317.067 988.142 320.595C988.142 322.457 989.955 323.829 993.581 324.711C997.207 325.495 1003.53 326.328 1012.54 327.21C1039.98 329.758 1053.7 338.186 1053.7 352.494C1053.7 360.628 1049.64 366.949 1041.5 371.457C1033.47 375.867 1022.59 378.072 1008.87 378.072C997.893 378.072 987.995 376.357 979.175 372.927C970.453 369.497 963.691 364.793 958.889 358.815L979.028 347.496C982.066 350.926 986.476 353.67 992.258 355.728C998.04 357.786 1004.26 358.815 1010.93 358.815C1022.79 358.815 1028.71 356.708 1028.71 352.494C1028.71 350.24 1026.75 348.672 1022.83 347.79C1019.01 346.81 1012.5 345.928 1003.28 345.144Z" fill="#00005E"/>
<path d="M1105.49 345.144C1079.33 343.086 1066.25 335.491 1066.25 322.359C1066.25 314.225 1070.07 307.806 1077.71 303.102C1085.45 298.398 1095.89 296.046 1109.02 296.046C1118.53 296.046 1127.4 297.712 1135.63 301.044C1143.96 304.376 1150.13 308.835 1154.15 314.421L1133.87 324.858C1131.71 321.918 1128.08 319.615 1122.99 317.949C1117.99 316.185 1112.55 315.303 1106.67 315.303C1095.79 315.303 1090.35 317.067 1090.35 320.595C1090.35 322.457 1092.17 323.829 1095.79 324.711C1099.42 325.495 1105.74 326.328 1114.76 327.21C1142.2 329.758 1155.92 338.186 1155.92 352.494C1155.92 360.628 1151.85 366.949 1143.71 371.457C1135.68 375.867 1124.8 378.072 1111.08 378.072C1100.1 378.072 1090.21 376.357 1081.39 372.927C1072.66 369.497 1065.9 364.793 1061.1 358.815L1081.24 347.496C1084.28 350.926 1088.69 353.67 1094.47 355.728C1100.25 357.786 1106.47 358.815 1113.14 358.815C1125 358.815 1130.93 356.708 1130.93 352.494C1130.93 350.24 1128.97 348.672 1125.05 347.79C1121.22 346.81 1114.71 345.928 1105.49 345.144Z" fill="#00005E"/>
<path d="M548.894 81.438C522.728 79.38 509.645 71.785 509.645 58.653C509.645 50.519 513.467 44.1 521.111 39.396C528.853 34.692 539.29 32.34 552.422 32.34C561.928 32.34 570.797 34.006 579.029 37.338C587.359 40.67 593.533 45.129 597.551 50.715L577.265 61.152C575.109 58.212 571.483 55.909 566.387 54.243C561.389 52.479 555.95 51.597 550.07 51.597C539.192 51.597 533.753 53.361 533.753 56.889C533.753 58.751 535.566 60.123 539.192 61.005C542.818 61.789 549.139 62.622 558.155 63.504C585.595 66.052 599.315 74.48 599.315 88.788C599.315 96.922 595.248 103.243 587.114 107.751C579.078 112.161 568.2 114.366 554.48 114.366C543.504 114.366 533.606 112.651 524.786 109.221C516.064 105.791 509.302 101.087 504.5 95.109L524.639 83.79C527.677 87.22 532.087 89.964 537.869 92.022C543.651 94.08 549.874 95.109 556.538 95.109C568.396 95.109 574.325 93.002 574.325 88.788C574.325 86.534 572.365 84.966 568.445 84.084C564.623 83.104 558.106 82.222 548.894 81.438Z" fill="#00005E"/>
</svg>
