<svg width="1363" height="143" viewBox="0 0 1363 143" fill="none" xmlns="http://www.w3.org/2000/svg">
<path d="M0 137.795V3.67242H84.2985C101.541 3.67242 114.953 7.34484 124.372 14.8493C133.792 22.1942 138.582 32.7324 138.582 46.4641C138.582 75.0451 118.784 89.4154 79.0299 89.4154H45.1827V137.955H0V137.795ZM81.5844 37.2032H45.1827V55.7249H81.5844C88.6092 55.7249 92.1217 52.5315 92.1217 46.3044C92.1217 40.0773 88.6092 37.0435 81.5844 37.0435V37.2032Z" fill="#F27C00"/>
<path d="M146.564 70.8936C146.564 48.6995 154.068 31.2954 169.236 18.8411C184.403 6.22714 204.679 0 229.905 0C255.131 0 275.407 6.22714 290.574 18.8411C305.742 31.2954 313.246 48.6995 313.246 70.8936C313.246 93.0878 305.742 110.652 290.574 123.265C275.407 135.72 255.29 142.107 229.905 142.107C204.52 142.107 184.403 135.879 169.236 123.265C154.068 110.811 146.564 93.2475 146.564 70.8936ZM256.727 46.6237C250.022 40.8756 241.081 38.1612 229.905 38.1612C218.729 38.1612 209.948 41.0353 203.242 46.6237C196.537 52.3719 193.184 60.3554 193.184 70.8936C193.184 81.4319 196.537 89.4154 203.242 95.1635C209.948 100.912 218.889 103.786 229.905 103.786C240.921 103.786 250.022 100.912 256.727 95.1635C263.433 89.4154 266.945 81.2722 266.945 70.8936C266.945 60.5151 263.593 52.3719 256.727 46.6237Z" fill="#F27C00"/>
<path d="M336.077 137.795V3.67242H414.468C454.223 3.67242 474.02 17.4041 474.02 44.7077C474.02 53.9686 471.625 61.6327 466.676 68.0196C461.727 74.4064 454.861 78.8771 445.921 81.5915L492.221 137.955H439.375L397.545 85.9026H381.1V137.955H335.917L336.077 137.795ZM417.183 36.5645H381.42V53.6492H417.183C420.376 53.6492 422.93 52.8509 424.846 51.4138C426.762 49.9768 427.72 47.9011 427.72 45.1867C427.72 39.4386 424.207 36.5645 417.183 36.5645Z" fill="#F27C00"/>
<path d="M640.222 41.9933H587.855V137.795H542.672V41.9933H490.305V3.67242H640.062V41.9933H640.222Z" fill="#F27C00"/>
<path d="M658.742 137.795V3.67242H780.241V39.5982H703.925V53.1702H772.258V88.4574H703.925V137.636H658.742V137.795Z" fill="#F27C00"/>
<path d="M794.77 70.8936C794.77 48.6995 802.273 31.2954 817.441 18.8411C832.608 6.38681 852.725 0 878.11 0C903.495 0 923.612 6.22714 938.78 18.8411C953.947 31.2954 961.451 48.6995 961.451 70.8936C961.451 93.0878 953.947 110.652 938.78 123.265C923.612 135.72 903.495 142.107 878.11 142.107C852.725 142.107 832.608 135.879 817.441 123.265C802.273 110.811 794.77 93.2475 794.77 70.8936ZM904.932 46.6237C898.227 40.8756 889.286 38.1612 878.11 38.1612C866.934 38.1612 858.153 41.0353 851.448 46.6237C844.742 52.3719 841.389 60.3554 841.389 70.8936C841.389 81.4319 844.742 89.4154 851.448 95.1635C858.153 100.912 867.094 103.786 878.11 103.786C889.126 103.786 898.227 100.912 904.932 95.1635C911.638 89.4154 915.15 81.2722 915.15 70.8936C915.15 60.5151 911.798 52.3719 904.932 46.6237Z" fill="#F27C00"/>
<path d="M984.121 137.795V3.67242H1029.3V99.6343H1105.78V137.795H984.121Z" fill="#F27C00"/>
<path d="M1127.65 137.795V3.67242H1172.84V137.795H1127.65Z" fill="#F27C00"/>
<path d="M1195.67 70.8936C1195.67 48.6995 1203.17 31.2954 1218.34 18.8411C1233.5 6.38681 1253.62 0 1279.01 0C1304.39 0 1324.51 6.22714 1339.68 18.8411C1354.84 31.2954 1362.35 48.6995 1362.35 70.8936C1362.35 93.0878 1354.84 110.652 1339.68 123.265C1324.51 135.72 1304.39 142.107 1279.01 142.107C1253.62 142.107 1233.5 135.879 1218.34 123.265C1203.17 110.811 1195.67 93.2475 1195.67 70.8936ZM1305.83 46.6237C1299.12 40.8756 1290.18 38.1612 1279.01 38.1612C1267.83 38.1612 1259.05 41.0353 1252.34 46.6237C1245.64 52.3719 1242.29 60.3554 1242.29 70.8936C1242.29 81.4319 1245.64 89.4154 1252.34 95.1635C1259.05 100.912 1267.99 103.786 1279.01 103.786C1290.02 103.786 1299.12 100.912 1305.83 95.1635C1312.53 89.4154 1316.05 81.2722 1316.05 70.8936C1316.05 60.5151 1312.69 52.3719 1305.83 46.6237Z" fill="#F27C00"/>
</svg>
