<svg width="1439" height="497" viewBox="0 0 1439 497" fill="none" xmlns="http://www.w3.org/2000/svg">
<path d="M29.91 232.005V1H164.806C233.216 1 267.283 24.6506 267.283 71.6767C267.283 87.6271 263.162 100.827 254.646 111.828C246.129 122.828 234.315 130.528 218.93 135.203L298.604 232.28H207.665L135.684 142.628H107.386V232.28H29.91V232.005ZM169.477 57.9263H107.936V87.352H169.477C174.972 87.352 179.367 85.977 182.664 83.502C185.961 81.0269 187.609 77.4518 187.609 72.7767C187.609 62.8765 181.565 57.9263 169.477 57.9263Z" fill="#180325" stroke="#1D1D1B" stroke-width="0.28" stroke-miterlimit="10"/>
<path d="M322.412 232.28V1H534.753V60.7475H400.556V81.1222H520.947V137.841H400.556V172.533H536.686V232.005H322.412V232.28Z" fill="#180325" stroke="#1D1D1B" stroke-width="0.28" stroke-miterlimit="10"/>
<path d="M103.396 489.07L1 257.789H87.7064L148.814 412.527L210.472 257.789H296.903L194.507 489.07H103.396Z" fill="#180325" stroke="#1D1D1B" stroke-width="0.28" stroke-miterlimit="10"/>
<path d="M327.514 489.07V257.789H405.741V489.07H327.514Z" fill="#180325" stroke="#1D1D1B" stroke-width="0.28" stroke-miterlimit="10"/>
<path d="M463.561 489.07V257.789H675.903V317.537H541.705V337.911H662.096V394.63H541.705V429.322H677.835V488.794H463.561V489.07Z" fill="#180325" stroke="#1D1D1B" stroke-width="0.28" stroke-miterlimit="10"/>
<path d="M793.792 489.07L706.746 257.789H792.139L839.519 402.615L891.03 257.789H973.669L1025.18 402.615L1072.01 257.789H1157.4L1070.36 489.07H987.442L932.349 348.649L876.706 489.07H793.792Z" fill="#180325" stroke="#1D1D1B" stroke-width="0.28" stroke-miterlimit="10"/>
<path d="M1169.58 428.371L1242.81 403.85C1246.67 412.667 1254.65 419.83 1266.76 425.616C1278.88 431.402 1292.92 434.157 1309.43 434.157C1341.37 434.157 1357.34 428.371 1357.34 417.075C1357.34 411.014 1352.93 406.881 1344.4 404.401C1335.59 401.922 1318.79 399.718 1294.02 398.065C1218.59 392.554 1181.14 369.136 1181.14 328.084C1181.14 304.941 1192.16 285.93 1213.91 271.328C1235.93 256.726 1265.66 249.287 1303.38 249.287C1335.59 249.287 1363.39 255.072 1386.52 266.369C1409.92 277.665 1426.16 291.991 1434.97 309.624L1361.74 336.349C1359.26 328.359 1352.93 322.023 1342.75 317.614C1332.56 313.206 1319.35 310.726 1303.38 310.726C1291.54 310.726 1281.63 312.104 1273.92 314.584C1266.21 317.339 1262.36 320.645 1262.36 325.053C1262.36 328.91 1266.21 331.666 1273.65 333.87C1281.35 336.074 1295.39 338.002 1315.77 339.931C1334.49 341.584 1351.01 343.788 1365.32 347.094C1379.64 350.401 1392.3 354.809 1403.59 360.595C1414.87 366.38 1423.41 373.819 1429.19 383.187C1434.97 392.554 1438 403.299 1438 415.973C1438 429.749 1434.7 442.147 1427.81 452.617C1420.93 463.086 1411.57 471.352 1399.18 477.688C1387.07 483.75 1373.03 488.434 1357.61 491.464C1342.2 494.495 1324.85 495.872 1305.86 495.872C1273.92 495.872 1246.12 489.811 1222.16 477.688C1198.49 465.566 1180.87 449.31 1169.31 428.647L1169.58 428.371Z" fill="#180325" stroke="#1D1D1B" stroke-width="0.28" stroke-miterlimit="10"/>
</svg>
