<svg xmlns="http://www.w3.org/2000/svg">
	<symbol id="logo" viewBox="0 0 60 47">
		<path d="M37.0065 0L29.9985 14.3876L22.9935 0L0 46.997H12.0048L13.8367 43.3014H5.67216L22.7903 8.00314L27.9663 18.5655L14.1176 46.997H45.8853L32.0337 18.5655L37.2097 8.00314L54.3278 43.3044H46.1633L47.9952 47H60L37.0065 0ZM40.0847 43.3044H19.9153L29.9985 22.7223L40.0817 43.3044H40.0847Z" />
	</symbol>
	<symbol id="linkedin" viewBox="0 0 81 82">
		<path d="M0 72.2513C0 51.3662 0 30.4767 0 9.59161C0.0518262 9.47379 0.129565 9.36469 0.15116 9.24251C0.837857 5.57692 2.81589 2.86265 6.10253 1.19131C7.16065 0.654569 8.35697 0.388377 9.49283 0C30.1628 0 50.8372 0 71.5072 0C71.5979 0.0480017 71.6799 0.12655 71.7749 0.144005C77.3635 1.22186 81 5.65547 81 11.3982C81 31.0789 81 50.7596 81 70.4403C81 76.1176 77.424 80.5469 71.9391 81.6858C71.7793 81.7207 71.6497 81.8953 71.5072 82H9.49283C9.32439 81.8909 9.16891 81.7163 8.9832 81.6771C4.83279 80.7345 2.00826 78.2559 0.552813 74.215C0.323914 73.5779 0.181392 72.9059 0 72.2513ZM43.1021 36.4987C43.1021 35.5213 43.1194 34.762 43.1021 34.0027C43.0676 32.7895 42.5363 32.2702 41.3314 32.2659C39.0122 32.2571 36.6929 32.2659 34.3737 32.2659C32.9744 32.2659 32.4389 32.8157 32.4389 34.2601C32.4389 44.3274 32.4389 54.3947 32.4389 64.4619C32.4389 65.9107 33.0176 66.4954 34.4558 66.4998C36.6152 66.5042 38.7789 66.4998 40.9384 66.4998C42.5795 66.4998 43.0719 66.0111 43.0719 64.379C43.0719 59.1861 43.0503 53.9932 43.0848 48.8003C43.0978 46.8889 43.5254 45.0518 44.5835 43.4241C45.7798 41.5738 47.5203 40.832 49.6581 41.0022C51.9255 41.1855 53.5105 42.3811 54.0763 44.5892C54.4823 46.1907 54.6723 47.8839 54.6982 49.5378C54.776 54.543 54.7198 59.5527 54.7198 64.5579C54.7198 65.8889 55.2726 66.4649 56.5812 66.4693C58.9782 66.4824 61.3795 66.4824 63.7764 66.4693C65.0462 66.4605 65.6508 65.8365 65.6508 64.5317C65.6465 58.9374 65.6551 53.3473 65.6076 47.753C65.586 45.2001 65.396 42.6517 64.7007 40.1731C63.4914 35.8573 60.9217 32.9117 56.4301 32.0346C53.8992 31.5415 51.3511 31.5982 48.8375 32.2702C46.7256 32.8375 45.0197 34.0158 43.6852 35.7525C43.5426 35.9358 43.4001 36.1191 43.1064 36.4944L43.1021 36.4987ZM27.5758 49.3239C27.5758 44.3448 27.5758 39.3701 27.5758 34.391C27.5758 32.7764 27.0489 32.2571 25.4337 32.2571C23.2743 32.2571 21.1148 32.2528 18.9511 32.2571C17.5432 32.2615 16.9299 32.8812 16.9256 34.2994C16.9256 44.3361 16.9256 54.3685 16.9256 64.4052C16.9256 65.8278 17.5863 66.4911 19.0116 66.4955C21.1192 66.5042 23.2268 66.4955 25.3344 66.4955C27.0058 66.4955 27.5672 65.9325 27.5715 64.2568C27.5715 59.2777 27.5715 54.303 27.5715 49.3239H27.5758ZM29.1306 22.299C29.1306 18.4676 26.0297 15.3256 22.2507 15.3431C18.4847 15.3605 15.3578 18.5374 15.3665 22.3339C15.3751 26.1217 18.4674 29.2549 22.2032 29.2636C26.0772 29.2723 29.1263 26.2089 29.1306 22.3033V22.299Z" />
	</symbol>
	<symbol id="facebook" viewBox="0 0 81 81">
		<path d="M80.9913 10.278V70.7095C80.9436 70.7962 80.8612 70.8787 80.8482 70.9698C79.8418 76.8745 75.0138 80.9831 69.0407 80.9918C62.9764 81.0005 56.9122 80.9918 50.8522 80.9918H50.0367V52.3531H61.9917C62.7855 47.5894 63.5664 42.8951 64.3645 38.114H50.0498V28.4565H64.3385V14.2564C64.139 14.2478 63.9828 14.2304 63.831 14.2347C58.6646 14.2781 53.4896 14.1263 48.3407 14.4256C41.9814 14.7944 36.39 20.4779 35.9302 26.8512C35.6829 30.2613 35.8044 33.7018 35.7567 37.1249C35.7567 37.4329 35.7567 37.7409 35.7567 38.1357H26.3263V52.3878H35.7046V80.9961H34.9498C27.2502 80.9961 19.555 81.0048 11.8554 80.9961C5.27925 80.9831 0.0174819 75.7248 0.0131441 69.1433C0.00446848 50.0537 -0.0172211 30.9641 0.026157 11.8746C0.0391704 6.946 2.43365 3.35803 6.81484 1.15405C7.89495 0.611734 9.12688 0.377453 10.2894 0C30.4298 0 50.5703 0 70.715 0C70.8018 0.0477239 70.8799 0.125818 70.9753 0.143172C76.0939 1.13236 79.3169 4.15632 80.692 9.176C80.7918 9.54478 80.8959 9.91356 81 10.2823L80.9913 10.278Z" />
	</symbol>
	<symbol id="instagram" viewBox="0 0 82 81">
		<path d="M40.807 26.0685C32.9439 26.0685 26.6814 32.259 26.6814 40.0241C26.6814 47.7763 32.9658 53.9582 40.8334 53.9582C48.6922 53.9582 54.959 47.7634 54.9546 39.9982C54.9546 32.2373 48.6834 26.0641 40.807 26.0685ZM69.5145 0H12.4811C5.58712 0 0 5.51565 0 12.3161V68.6839C0 75.4844 5.59151 81 12.4855 81H69.5145C76.4085 81 82 75.4844 82 68.6839V12.3161C82 5.51565 76.4085 0 69.5145 0ZM40.8246 63.2591C27.9312 63.2677 17.235 52.7036 17.2569 39.9766C17.2789 27.2408 27.9926 16.7243 40.8947 16.7719C53.81 16.8195 64.458 27.4052 64.3835 40.128C64.3089 52.8118 53.6741 63.2548 40.8246 63.2634V63.2591ZM67.8787 18.0005C65.4097 18.0264 63.1687 15.8461 63.138 13.3933C63.1117 10.9578 65.3176 8.74717 67.8042 8.71689C70.2776 8.69093 72.5186 10.8669 72.5449 13.3198C72.5712 15.7553 70.3609 17.9702 67.8787 17.9962V18.0005Z" />
	</symbol>
</svg>