<svg width="42" height="42" viewBox="0 0 42 42" fill="none" xmlns="http://www.w3.org/2000/svg">
<path d="M20.9012 13.517C16.8737 13.517 13.6661 16.7269 13.6661 20.7533C13.6661 24.7729 16.8849 27.9783 20.9146 27.9783C24.9399 27.9783 28.1497 24.7662 28.1475 20.7398C28.1475 16.7157 24.9354 13.5147 20.9012 13.517ZM35.605 0H6.39277C2.8617 0 0 2.85997 0 6.38614V35.6139C0 39.14 2.86394 42 6.39502 42H35.605C39.1361 42 42 39.14 42 35.6139V6.38614C42 2.85997 39.1361 0 35.605 0ZM20.9101 32.801C14.3062 32.8055 8.82768 27.3278 8.83891 20.7286C8.85015 14.1249 14.3377 8.67186 20.9461 8.69654C27.5612 8.72121 33.0151 14.2101 32.9769 20.8071C32.9387 27.3839 27.4916 32.7988 20.9101 32.8032V32.801ZM34.7671 9.33358C33.5025 9.34704 32.3547 8.21651 32.339 6.94467C32.3255 5.6818 33.4553 4.53557 34.729 4.51987C35.9958 4.50641 37.1437 5.63469 37.1571 6.90654C37.1706 8.16941 36.0385 9.31788 34.7671 9.33134V9.33358Z" fill="white"/>
</svg>
