<svg width="1410" height="133" viewBox="0 0 1410 133" fill="none" xmlns="http://www.w3.org/2000/svg"><path d="M144.627 34.129l-37.148 18.749c-4.258-10.986-14.096-16.552-29.806-16.552-10.278 0-18.354 2.637-24.52 7.763-6.168 5.273-9.251 12.597-9.251 22.265 0 9.667 3.083 16.99 9.25 22.264 6.167 5.273 14.39 7.91 24.52 7.91 15.565 0 25.549-5.567 30.247-16.845l37.148 18.749c-5.579 9.667-14.095 17.723-25.842 23.875-11.746 6.152-25.548 9.228-41.7 9.228-23.198 0-41.846-5.712-55.794-17.284C7.929 102.973 1.028 86.861 1.028 66.354c0-20.507 6.9-36.326 20.85-47.752C35.826 7.177 54.474 1.319 77.673 1.319c16.004 0 29.806 3.076 41.259 9.082 11.599 6.152 20.115 13.915 25.695 23.582v.147zm8.075 32.225c0-20.36 6.901-36.326 20.85-47.752 13.949-11.425 32.596-17.284 55.795-17.284 23.199 0 41.846 5.713 55.795 17.284 13.949 11.426 20.85 27.391 20.85 47.752 0 20.36-6.901 36.472-20.85 48.044-13.949 11.425-32.449 17.284-55.795 17.284-23.346 0-41.846-5.713-55.795-17.284-13.949-11.425-20.85-27.538-20.85-48.044zm101.312-22.265c-6.166-5.273-14.389-7.763-24.667-7.763-10.278 0-18.354 2.637-24.52 7.763-6.167 5.273-9.251 12.597-9.251 22.265 0 9.667 3.084 16.99 9.251 22.264 6.166 5.273 14.389 7.91 24.52 7.91s18.501-2.637 24.667-7.91c6.167-5.273 9.397-12.743 9.397-22.264 0-9.521-3.083-16.992-9.397-22.265zm160.044 83.638L367.22 57.418v70.309h-40.231V4.687h50.802l46.839 70.455V4.687h40.231v123.04h-50.803zm205.414-87.886h-48.16v87.886h-41.553V39.841h-48.16V4.687h137.726v35.154h.147zm87.51-35.154l55.208 123.04h-45.957l-12.921-30.76h-41.7l-12.921 30.76h-45.664l55.061-123.04h49.041-.147zm-13.508 62.106L682.756 40.28h-.294l-10.865 26.512h22.024-.147zm218.482-32.664l-37.148 18.749c-4.258-10.986-14.096-16.552-29.806-16.552-10.278 0-18.354 2.637-24.521 7.763-6.167 5.273-9.25 12.597-9.25 22.265 0 9.667 3.083 16.99 9.25 22.264 6.167 5.273 14.389 7.91 24.521 7.91 15.563 0 25.548-5.567 30.246-16.845l37.148 18.749c-5.579 9.667-14.095 17.723-25.842 23.875-11.746 6.152-25.548 9.228-41.699 9.228-23.199 0-41.847-5.712-55.795-17.284-13.949-11.425-20.85-27.537-20.85-48.044 0-20.506 6.901-36.326 20.85-47.751 13.948-11.425 32.449-17.284 55.795-17.284 16.004 0 29.806 3.076 41.259 9.081 11.599 6.152 20.115 13.916 25.695 23.583l.147.293zm141.834 5.712h-48.16v87.886h-41.55V39.841h-48.16V4.687h137.73v35.154h.14zm103.96-35.154v67.232c0 7.91 2.2 14.062 6.46 18.163 4.26 4.102 10.42 6.299 18.65 6.299 8.22 0 14.38-2.05 18.64-6.299 4.41-4.1 6.46-10.253 6.46-18.163V4.687h41.56V73.97c0 19.042-6.02 33.25-18.06 42.917-12.04 9.668-28.34 14.502-48.75 14.502s-36.71-4.834-48.75-14.502c-12.04-9.667-18.06-24.022-18.06-42.917V4.687h41.85zm108.06 91.548l39.06-13.037c2.06 4.688 6.31 8.496 12.77 11.572 6.46 3.076 13.95 4.54 22.76 4.54 17.04 0 25.55-3.075 25.55-9.08 0-3.223-2.35-5.42-6.9-6.739-4.7-1.318-13.65-2.49-26.87-3.369-40.23-2.93-60.2-15.38-60.2-37.205 0-12.304 5.87-22.41 17.47-30.174 11.75-7.763 27.61-11.718 47.72-11.718 17.18 0 32.01 3.076 44.35 9.082 12.48 6.005 21.14 13.622 25.84 22.997l-39.06 14.208c-1.32-4.248-4.7-7.617-10.13-9.96-5.43-2.344-12.48-3.662-21-3.662-6.31 0-11.6.732-15.71 2.05-4.11 1.465-6.16 3.223-6.16 5.566 0 2.05 2.05 3.516 6.02 4.688 4.11 1.171 11.59 2.197 22.46 3.222 9.98.879 18.79 2.05 26.43 3.808 7.63 1.758 14.39 4.102 20.41 7.178 6.02 3.076 10.57 7.03 13.65 12.01 3.09 4.98 4.7 10.693 4.7 17.431 0 7.324-1.76 13.915-5.43 19.482-3.67 5.566-8.66 9.96-15.27 13.329-6.46 3.222-13.95 5.712-22.17 7.324-8.22 1.611-17.47 2.343-27.61 2.343-17.03 0-31.86-3.222-44.63-9.667-12.63-6.445-22.03-15.087-28.19-26.073l.14-.146z" fill="#F27C00" stroke="#1D1D1B" stroke-width=".14" stroke-miterlimit="10"/></svg>