<svg width="1218" height="142" viewBox="0 0 1218 142" fill="none" xmlns="http://www.w3.org/2000/svg">
<path d="M0.158831 103.065L42.408 88.9526C44.6316 94.0266 49.2377 98.1491 56.2263 101.479C63.2149 104.809 71.3153 106.394 80.8451 106.394C99.2696 106.394 108.482 103.065 108.482 96.5635C108.482 93.0752 105.94 90.6968 101.017 89.2697C95.9341 87.8427 86.2454 86.5742 71.9506 85.6228C28.5896 82.4516 6.82975 68.974 6.82975 45.3484C6.82975 32.0293 13.183 21.0886 25.7307 12.6849C38.4372 4.28114 55.7498 0 77.3509 0C95.9341 0 111.976 3.32978 125.318 9.83077C138.819 16.3318 148.19 24.5769 153.272 34.7248L111.023 50.1052C109.594 45.507 105.94 41.8601 100.064 39.3231C94.187 36.7861 86.5631 35.3591 77.3509 35.3591C70.5211 35.3591 64.8032 36.1519 60.3559 37.5789C55.9086 39.1645 53.685 41.0672 53.685 43.6042C53.685 45.8241 55.9086 47.4097 60.1971 48.6782C64.6444 49.9467 72.7448 51.0566 84.4983 52.1665C95.2988 53.1179 104.829 54.3864 113.088 56.2891C121.347 58.1918 128.653 60.7288 135.165 64.0586C141.678 67.3883 146.601 71.6695 149.937 77.0605C153.272 82.4516 155.019 88.6355 155.019 95.9293C155.019 103.857 153.113 110.993 149.143 117.018C145.172 123.043 139.772 127.8 132.624 131.447C125.636 134.935 117.535 137.631 108.641 139.375C99.7461 141.119 89.7397 141.912 78.7803 141.912C60.3559 141.912 44.3139 138.424 30.4956 131.447C16.8361 124.47 6.67092 115.115 0 103.223L0.158831 103.065Z" fill="#F27C00"/>
<path d="M179.639 137.155V3.96393H301.78V38.3716H224.588V50.1051H293.839V82.7686H224.588V102.747H302.892V136.996H179.639V137.155Z" fill="#F27C00"/>
<path d="M334.658 137.155V3.96393H412.645C452.194 3.96393 471.889 17.6002 471.889 44.7141C471.889 53.9106 469.506 61.5215 464.582 67.8639C459.659 74.2064 452.829 78.6461 443.934 81.3416L489.995 137.314H437.422L395.808 85.6227H379.449V137.314H334.5L334.658 137.155ZM415.345 36.6275H379.766V53.5935H415.345C418.521 53.5935 421.063 52.8007 422.969 51.3736C424.875 49.9466 425.828 47.8853 425.828 45.1897C425.828 39.4815 422.333 36.6275 415.345 36.6275Z" fill="#F27C00"/>
<path d="M546.539 137.155L487.295 3.96393H537.486L572.746 93.0751L608.483 3.96393H658.356L599.271 137.155H546.539Z" fill="#F27C00"/>
<path d="M675.669 137.155V3.96393H720.618V137.155H675.669Z" fill="#F27C00"/>
<path d="M898.668 35.8347L858.484 56.1305C853.878 44.2384 843.236 38.2131 826.241 38.2131C815.123 38.2131 806.387 41.0672 799.716 46.6168C793.045 52.325 789.71 60.2531 789.71 70.7181C789.71 81.1831 793.045 89.1111 799.716 94.8193C806.387 100.527 815.282 103.382 826.241 103.382C843.077 103.382 853.878 97.3563 858.96 85.1471L899.145 105.443C893.109 115.908 883.897 124.629 871.19 131.288C858.484 137.948 843.554 141.278 826.082 141.278C800.987 141.278 780.815 135.094 765.726 122.567C750.637 110.2 743.172 92.758 743.172 70.5595C743.172 48.361 750.637 31.2364 765.726 18.8687C780.815 6.50094 800.828 0.158508 826.082 0.158508C843.395 0.158508 858.325 3.48829 870.714 9.98928C883.262 16.6488 892.474 25.0526 898.509 35.5176L898.668 35.8347Z" fill="#F27C00"/>
<path d="M918.681 137.155V3.96393H1040.82V38.3716H963.63V50.1051H1032.88V82.7686H963.63V102.747H1041.93V136.996H918.681V137.155Z" fill="#F27C00"/>
<path d="M1062.42 103.065L1104.67 88.9526C1106.9 94.0266 1111.5 98.1491 1118.49 101.479C1125.48 104.809 1133.58 106.394 1143.11 106.394C1161.53 106.394 1170.75 103.065 1170.75 96.5635C1170.75 93.0752 1168.2 90.6968 1163.28 89.2697C1158.2 87.8427 1148.51 86.5742 1134.21 85.6228C1090.69 82.4516 1069.09 68.974 1069.09 45.3484C1069.09 32.0293 1075.45 21.0886 1087.99 12.6849C1100.7 4.28114 1117.85 0 1139.61 0C1158.2 0 1174.24 3.32978 1187.58 9.83077C1201.08 16.3318 1210.45 24.5769 1215.54 34.7248L1173.29 50.1052C1171.86 45.507 1168.2 41.8601 1162.33 39.3231C1156.45 36.7861 1148.83 35.3591 1139.61 35.3591C1132.78 35.3591 1127.07 36.1519 1122.62 37.5789C1118.17 39.1645 1115.95 41.0672 1115.95 43.6042C1115.95 45.8241 1118.17 47.4097 1122.46 48.6782C1126.91 49.9467 1135.01 51.0566 1146.76 52.1665C1157.56 53.1179 1167.09 54.3864 1175.35 56.2891C1183.61 58.1918 1190.92 60.7288 1197.43 64.0586C1203.94 67.3883 1208.87 71.6695 1212.2 77.0605C1215.54 82.4516 1217.28 88.6355 1217.28 95.9293C1217.28 103.857 1215.38 110.993 1211.41 117.018C1207.44 123.043 1202.04 127.8 1194.89 131.447C1187.9 134.935 1179.8 137.631 1170.9 139.375C1162.01 141.119 1152 141.912 1141.04 141.912C1122.62 141.912 1106.58 138.424 1092.76 131.447C1079.1 124.47 1068.93 115.115 1062.26 103.223L1062.42 103.065Z" fill="#F27C00"/>
</svg>
