<svg width="1220" height="290" viewBox="0 0 1220 290" fill="none" xmlns="http://www.w3.org/2000/svg">
<path d="M50.9394 135.189L0.067627 0H49.9735L77.6632 84.654L107.768 0H156.064L186.168 84.654L213.536 0H263.442L212.57 135.189H164.113L131.916 53.1099L99.3964 135.189H50.9394Z" fill="#F27C00"/>
<path d="M382.894 135.189V76.4461H328.159V135.189H282.599V0H328.159V37.8207H382.894V0H428.614V135.189H382.894Z" fill="#F27C00"/>
<path d="M560.784 0L621.315 135.189H570.926L556.76 101.392H511.039L496.872 135.189H446.806L507.015 0H560.784ZM545.973 68.2382L534.221 39.1082H533.899L521.986 68.2382H546.134H545.973Z" fill="#F27C00"/>
<path d="M754.29 38.6254H701.487V135.189H655.927V38.6254H603.124V0H754.129V38.6254H754.29Z" fill="#F27C00"/>
<path d="M863.278 135.189L812.567 0H862.473L890.163 84.654L920.106 0H968.402L998.507 84.654L1025.87 0H1075.78L1024.91 135.189H976.452L944.254 53.1099L911.735 135.189H863.278Z" fill="#F27C00"/>
<path d="M1094.94 135.189V0H1218.74V34.9238H1140.5V46.8333H1210.69V79.9868H1140.5V100.265H1219.86V135.028H1094.94V135.189Z" fill="#F27C00"/>
<path d="M309.645 182.211L268.915 202.812C264.247 190.741 253.461 184.625 236.235 184.625C224.966 184.625 216.112 187.522 209.35 193.155C202.589 198.949 199.208 206.996 199.208 217.618C199.208 228.24 202.589 236.287 209.35 242.081C216.112 247.874 225.127 250.771 236.235 250.771C253.3 250.771 264.247 244.656 269.398 232.263L310.128 252.864C304.01 263.486 294.673 272.337 281.794 279.097C268.915 285.856 253.783 289.236 236.074 289.236C210.638 289.236 190.193 282.959 174.899 270.245C159.605 257.692 152.039 239.988 152.039 217.457C152.039 194.926 159.605 177.544 174.899 164.991C190.193 152.438 210.477 146 236.074 146C253.622 146 268.754 149.38 281.311 155.978C294.029 162.738 303.367 171.267 309.484 181.889L309.645 182.211Z" fill="#F27C00"/>
<path d="M427.648 149.863L488.179 285.051H437.79L423.624 251.254H377.903L363.737 285.051H313.67L373.879 149.863H427.648ZM412.837 218.101L401.085 188.971H400.763L388.85 218.101H412.998H412.837Z" fill="#F27C00"/>
<path d="M601.675 285.051L550.32 207.801V285.051H506.21V149.863H561.911L613.266 227.274V149.863H657.376V285.051H601.675Z" fill="#F27C00"/>
<path d="M878.572 167.405C893.705 179.154 901.271 195.891 901.271 217.618C901.271 239.345 893.705 256.082 878.733 267.67C863.6 279.258 843.316 285.051 817.558 285.051H746.724V149.863H817.558C843.155 149.863 863.6 155.656 878.733 167.405H878.572ZM854.585 217.618C854.585 207.64 851.204 200.397 844.604 195.569C838.003 190.741 828.988 188.488 817.397 188.488H792.122V246.587H819.812C830.437 246.587 838.969 244.012 845.248 239.184C851.526 234.356 854.585 227.113 854.585 217.618Z" fill="#F27C00"/>
<path d="M912.862 217.618C912.862 195.247 920.428 177.705 935.722 165.152C951.016 152.598 971.3 146.161 996.897 146.161C1022.49 146.161 1042.78 152.438 1058.07 165.152C1073.37 177.705 1080.93 195.247 1080.93 217.618C1080.93 239.988 1073.37 257.692 1058.07 270.406C1042.78 282.959 1022.49 289.397 996.897 289.397C971.3 289.397 951.016 283.12 935.722 270.406C920.428 257.853 912.862 240.149 912.862 217.618ZM1023.94 193.155C1017.18 187.361 1008.17 184.625 996.897 184.625C985.628 184.625 976.773 187.522 970.012 193.155C963.251 198.949 959.87 206.996 959.87 217.618C959.87 228.24 963.251 236.287 970.012 242.081C976.773 247.874 985.789 250.771 996.897 250.771C1008 250.771 1017.18 247.874 1023.94 242.081C1030.7 236.287 1034.25 228.079 1034.25 217.618C1034.25 207.157 1030.86 198.949 1023.94 193.155Z" fill="#F27C00"/>
</svg>
