<svg width="42" height="42" viewBox="0 0 42 42" fill="none" xmlns="http://www.w3.org/2000/svg">
<path d="M41.9955 5.32933V36.6642C41.9708 36.7092 41.928 36.7519 41.9213 36.7991C41.3995 39.8609 38.8961 41.9912 35.7989 41.9957C32.6544 42.0002 29.51 41.9957 26.3678 41.9957H25.945V27.1461H32.1439C32.5555 24.676 32.9603 22.2419 33.3742 19.7628H25.9517V14.7552H33.3607V7.39222C33.2572 7.38772 33.1763 7.37873 33.0975 7.38098C30.4187 7.40347 27.7354 7.32474 25.0655 7.47996C21.7682 7.67118 18.8689 10.6182 18.6305 13.9228C18.5023 15.691 18.5652 17.475 18.5405 19.2499C18.5405 19.4096 18.5405 19.5694 18.5405 19.7741H13.6507V27.1641H18.5135V41.998H18.1221C14.1298 41.998 10.1396 42.0025 6.14723 41.998C2.73739 41.9912 0.00906469 39.2647 0.00681546 35.8521C0.00231699 25.9538 -0.00892945 16.0555 0.0135629 6.15719C0.0203106 3.60163 1.26189 1.7412 3.53362 0.598397C4.09368 0.317195 4.73245 0.195716 5.33525 0C15.7784 0 26.2216 0 36.6671 0C36.712 0.0247457 36.7525 0.0652387 36.802 0.0742372C39.4561 0.587149 41.1273 2.15513 41.8403 4.75793C41.892 4.94915 41.946 5.14036 42 5.33158L41.9955 5.32933Z" fill="white"/>
</svg>
