<svg width="42" height="42" viewBox="0 0 42 42" fill="none" xmlns="http://www.w3.org/2000/svg">
<path d="M0 37.0068C0 26.3095 0 15.61 0 4.91278C0.0268728 4.85243 0.0671821 4.79655 0.0783791 4.73397C0.434444 2.85647 1.46009 1.46623 3.16428 0.610186C3.71293 0.335267 4.33324 0.198925 4.92221 0C15.64 0 26.36 0 37.0778 0C37.1248 0.0245862 37.1674 0.0648182 37.2166 0.0737587C40.1144 0.625831 42 2.89671 42 5.83811C42 15.9185 42 25.9988 42 36.0792C42 38.9871 40.1458 41.2557 37.3017 41.8391C37.2189 41.857 37.1517 41.9464 37.0778 42H4.92221C4.83487 41.9441 4.75425 41.8547 4.65796 41.8346C2.50589 41.3518 1.04132 40.0823 0.286644 38.0126C0.167955 37.6862 0.0940549 37.342 0 37.0068ZM22.3492 18.6945C22.3492 18.1938 22.3582 17.8049 22.3492 17.416C22.3313 16.7946 22.0559 16.5287 21.4311 16.5264C20.2285 16.522 19.026 16.5264 17.8234 16.5264C17.0978 16.5264 16.8202 16.808 16.8202 17.5479C16.8202 22.7043 16.8202 27.8607 16.8202 33.0171C16.8202 33.7591 17.1202 34.0586 17.866 34.0609C18.9857 34.0631 20.1076 34.0609 21.2273 34.0609C22.0783 34.0609 22.3336 33.8105 22.3336 32.9746C22.3336 30.3148 22.3224 27.655 22.3403 24.9953C22.347 24.0163 22.5687 23.0753 23.1174 22.2416C23.7377 21.2939 24.6402 20.9139 25.7487 21.0011C26.9243 21.095 27.7462 21.7074 28.0396 22.8384C28.2501 23.6587 28.3486 24.5259 28.362 25.373C28.4023 27.9367 28.3732 30.5026 28.3732 33.0663C28.3732 33.748 28.6599 34.043 29.3384 34.0452C30.5813 34.0519 31.8264 34.0519 33.0693 34.0452C33.7276 34.0408 34.0412 33.7211 34.0412 33.0528C34.0389 30.1874 34.0434 27.3242 34.0188 24.4588C34.0076 23.1513 33.909 21.846 33.5485 20.5764C32.9215 18.3659 31.589 16.8572 29.26 16.408C27.9477 16.1554 26.6265 16.1845 25.3232 16.5287C24.2281 16.8192 23.3435 17.4227 22.6516 18.3123C22.5777 18.4062 22.5038 18.5 22.3515 18.6922L22.3492 18.6945ZM14.2986 25.2635C14.2986 22.7132 14.2986 20.1652 14.2986 17.6149C14.2986 16.7879 14.0254 16.522 13.1878 16.522C12.0681 16.522 10.9484 16.5197 9.8265 16.522C9.09645 16.5242 8.77846 16.8416 8.77622 17.568C8.77622 22.7087 8.77622 27.8473 8.77622 32.988C8.77622 33.7167 9.11885 34.0564 9.85785 34.0586C10.9507 34.0631 12.0435 34.0586 13.1363 34.0586C14.003 34.0586 14.2941 33.7703 14.2963 32.912C14.2963 30.3618 14.2963 27.8137 14.2963 25.2635H14.2986ZM15.1048 11.4214C15.1048 9.459 13.4969 7.84972 11.5374 7.85866C9.58464 7.8676 7.96332 9.49476 7.9678 11.4393C7.97227 13.3794 9.57569 14.9842 11.5128 14.9887C13.5215 14.9931 15.1025 13.4241 15.1048 11.4237V11.4214Z" fill="white"/>
</svg>
