<svg width="324" height="121" viewBox="0 0 324 121" fill="none" xmlns="http://www.w3.org/2000/svg"><path d="M17.488 65.175v29.369c0 3.455.92 6.142 2.7 7.934 1.78 1.792 4.357 2.751 7.793 2.751 3.437 0 6.014-.895 7.793-2.751 1.841-1.792 2.7-4.479 2.7-7.934v-29.37H55.84V95.44c0 8.318-2.516 14.524-7.548 18.747-5.032 4.223-11.843 6.335-20.372 6.335-8.53 0-15.34-2.112-20.372-6.335S0 103.694 0 95.44V65.175h17.488zm45.102 40.054l16.322-5.694c.86 2.047 2.639 3.711 5.339 5.054 2.7 1.344 5.83 1.984 9.51 1.984 7.119 0 10.678-1.344 10.678-3.967 0-1.408-.982-2.368-2.884-2.943-1.964-.576-5.707-1.088-11.23-1.472-16.813-1.28-25.158-6.718-25.158-16.252 0-5.375 2.454-9.79 7.302-13.18 4.91-3.392 11.536-5.12 19.943-5.12 7.18 0 13.377 1.344 18.531 3.967 5.216 2.624 8.837 5.95 10.8 10.046l-16.322 6.206c-.553-1.855-1.964-3.327-4.234-4.35-2.27-1.024-5.216-1.6-8.775-1.6-2.639 0-4.848.32-6.566.896-1.718.64-2.577 1.407-2.577 2.431 0 .896.859 1.536 2.516 2.048 1.718.511 4.847.96 9.388 1.407 4.173.384 7.855.896 11.045 1.664 3.191.768 6.014 1.791 8.53 3.135 2.516 1.344 4.418 3.071 5.707 5.247 1.288 2.175 1.963 4.67 1.963 7.614 0 3.199-.736 6.079-2.27 8.51s-3.621 4.351-6.382 5.823c-2.7 1.407-5.829 2.495-9.266 3.199-3.436.704-7.302 1.024-11.536 1.024-7.118 0-13.316-1.408-18.654-4.223-5.277-2.816-9.204-6.591-11.782-11.39l.062-.064zM43.445 1.477l23.072 53.747H47.31l-5.4-13.437H24.484l-5.4 13.437H0L22.95 1.477h20.495zm-5.646 27.13l-4.48-11.582h-.122l-4.54 11.581h9.204-.062zm70.444 26.617H73.389V1.477h32.031c6.198 0 10.984 1.216 14.359 3.583 3.375 2.431 5.093 5.823 5.093 10.302 0 3.903-1.472 7.102-4.356 9.661 2.515 1.408 4.54 3.264 6.074 5.695 1.534 2.431 2.332 5.119 2.332 7.998 0 5.247-1.779 9.278-5.4 12.157-3.559 2.88-8.713 4.287-15.34 4.287l.061.064zm-4.111-40.95H90.816v6.91H104.5c2.332-.128 3.436-1.28 3.436-3.455 0-1.088-.368-1.92-1.043-2.56-.675-.64-1.595-.895-2.823-.895h.062zm2.147 19.067H90.816v9.15h15.77c1.473 0 2.639-.384 3.498-1.216.859-.767 1.289-1.92 1.289-3.327s-.43-2.56-1.35-3.391c-.921-.832-2.148-1.216-3.744-1.216zm27.921-4.863c0-8.894 2.884-15.868 8.713-20.859 5.83-4.99 13.561-7.55 23.318-7.55 9.757 0 17.488 2.496 23.318 7.55 5.829 4.991 8.713 11.965 8.713 20.86 0 8.893-2.884 15.932-8.713 20.986-5.83 4.991-13.561 7.55-23.318 7.55-9.757 0-17.488-2.495-23.318-7.55-5.829-4.99-8.713-12.029-8.713-20.987zm42.34-9.725c-2.577-2.304-6.014-3.392-10.309-3.392-4.295 0-7.67 1.152-10.248 3.392-2.577 2.303-3.865 5.502-3.865 9.725s1.288 7.423 3.865 9.726c2.578 2.303 6.014 3.455 10.248 3.455 4.234 0 7.732-1.151 10.309-3.455 2.577-2.303 3.927-5.567 3.927-9.726 0-4.159-1.289-7.422-3.927-9.725zm45.961-17.276v29.369c0 3.455.92 6.142 2.699 7.934 1.78 1.791 4.357 2.751 7.793 2.751 3.437 0 6.014-.895 7.794-2.751 1.84-1.792 2.699-4.479 2.699-7.934V1.476h17.366v30.266c0 8.318-2.516 14.524-7.548 18.747-5.031 4.223-11.842 6.335-20.372 6.335-8.529 0-15.34-2.112-20.372-6.335s-7.548-10.493-7.548-18.747V1.477h17.489zm101.125 15.356h-20.127v38.391h-17.366v-38.39h-20.127V1.476h57.558v15.356h.062z" fill="#F27C00"/></svg>