<svg width="1232" height="144" viewBox="0 0 1232 144" fill="none" xmlns="http://www.w3.org/2000/svg"><path d="M113.398 3.839l60.222 134.346h-50.132l-14.094-33.586H63.906l-14.094 33.586H0L59.902 3.839h53.496zM98.662 71.652L86.97 42.703h-.32L74.798 71.652h24.025-.16zm183.872 66.533h-90.975V3.839h83.607c16.177 0 28.67 3.038 37.479 8.956 8.809 6.078 13.294 14.554 13.294 25.75 0 9.756-3.844 17.753-11.372 24.15 6.567 3.519 11.852 8.157 15.856 14.235 4.005 6.077 6.087 12.795 6.087 19.992 0 13.115-4.645 23.191-14.095 30.388-9.29 7.197-22.744 10.715-40.042 10.715l.161.16zm-10.732-102.36h-34.756V53.1h35.717c6.087-.32 8.97-3.199 8.97-8.636 0-2.72-.961-4.799-2.723-6.398-1.762-1.6-4.164-2.24-7.368-2.24h.16zm5.606 47.662h-40.362v22.871h41.163c3.844 0 6.887-.96 9.13-3.039 2.242-1.919 3.363-4.798 3.363-8.317 0-3.518-1.121-6.397-3.524-8.476-2.402-2.08-5.605-3.039-9.77-3.039zm72.876-12.155c0-22.231 7.528-39.664 22.744-52.14C388.244 6.717 408.425.32 433.891.32c25.467 0 45.647 6.237 60.863 18.872 15.216 12.476 22.744 29.909 22.744 52.14s-7.528 39.824-22.744 52.459c-15.216 12.475-35.396 18.873-60.863 18.873-25.466 0-45.647-6.238-60.863-18.873-15.216-12.475-22.744-30.068-22.744-52.46zm110.515-24.31c-6.727-5.758-15.696-8.477-26.908-8.477-11.212 0-20.021 2.879-26.748 8.476-6.727 5.758-10.09 13.755-10.09 24.31 0 10.557 3.363 18.553 10.09 24.311 6.727 5.758 15.697 8.637 26.748 8.637 11.052 0 20.181-2.879 26.908-8.637 6.727-5.758 10.251-13.914 10.251-24.31 0-10.396-3.364-18.553-10.251-24.31zM580.764 3.839v73.41c0 8.637 2.402 15.354 7.047 19.833 4.645 4.478 11.372 6.877 20.341 6.877 8.969 0 15.696-2.239 20.341-6.877 4.805-4.479 7.048-11.196 7.048-19.832V3.838h45.327v75.65c0 20.791-6.567 36.305-19.701 46.861-13.133 10.556-30.912 15.834-53.175 15.834-22.263 0-40.042-5.278-53.175-15.834-13.134-10.556-19.701-26.23-19.701-46.861V3.839h45.648zm263.954 38.384h-52.535v95.962h-45.327V42.223h-52.534V3.84h150.236v38.384h.16zM958.116 3.839v73.41c0 8.637 2.403 15.354 7.048 19.833 4.644 4.478 11.371 6.877 20.341 6.877 8.969 0 15.695-2.239 20.345-6.877 4.8-4.479 7.04-11.196 7.04-19.832V3.838h45.33v75.65c0 20.791-6.57 36.305-19.7 46.861-13.13 10.556-30.91 15.834-53.175 15.834-22.264 0-40.042-5.278-53.176-15.834-13.133-10.556-19.7-26.23-19.7-46.861V3.839h45.647zm117.724 100.12l42.6-14.234c2.24 5.118 6.89 9.276 13.94 12.634 7.04 3.359 15.21 4.959 24.82 4.959 18.58 0 27.87-3.359 27.87-9.917 0-3.518-2.56-5.917-7.53-7.357-5.12-1.44-14.89-2.719-29.31-3.678-43.88-3.199-65.67-16.793-65.67-40.624 0-13.435 6.41-24.47 19.06-32.947C1114.44 4.318 1131.74 0 1153.68 0c18.74 0 34.92 3.359 48.37 9.916 13.61 6.558 23.06 14.874 28.19 25.11l-42.61 15.514c-1.44-4.638-5.12-8.317-11.05-10.876-5.92-2.559-13.61-3.998-22.9-3.998-6.89 0-12.65.8-17.14 2.239-4.48 1.6-6.73 3.519-6.73 6.078 0 2.239 2.25 3.838 6.57 5.118 4.49 1.28 12.65 2.399 24.51 3.518 10.89.96 20.5 2.24 28.83 4.159 8.32 1.919 15.69 4.478 22.26 7.836 6.57 3.36 11.53 7.677 14.89 13.115 3.37 5.438 5.13 11.676 5.13 19.033 0 7.997-1.92 15.194-5.93 21.271-4 6.078-9.45 10.876-16.65 14.555-7.05 3.518-15.22 6.237-24.19 7.996-8.97 1.76-19.06 2.559-30.11 2.559-18.58 0-34.76-3.518-48.69-10.555-13.77-7.038-24.03-16.474-30.75-28.469l.16-.16z" fill="#F27C00"/></svg>