<svg width="636" height="142" viewBox="0 0 636 142" fill="none" xmlns="http://www.w3.org/2000/svg"><path d="M90.647 137.135H1V4.695h82.387c15.94 0 28.251 2.995 36.932 8.829 8.681 5.991 13.1 14.347 13.1 25.384 0 9.618-3.788 17.501-11.206 23.808 6.471 3.469 11.679 8.041 15.625 14.032 3.946 5.992 5.997 12.614 5.997 19.709 0 12.929-4.577 22.862-13.889 29.957-9.154 7.095-22.411 10.563-39.457 10.563l.158.158zM80.072 36.228H45.666v17.028h35.196c5.997-.315 8.838-3.154 8.838-8.514 0-2.68-.947-4.73-2.683-6.307-1.736-1.577-4.104-2.207-7.26-2.207h.315zm5.525 46.985H45.666v22.546h40.562c3.788 0 6.786-.946 8.996-2.996 2.21-1.892 3.314-4.73 3.314-8.198 0-3.469-1.104-6.307-3.472-8.357-2.367-2.05-5.524-2.995-9.627-2.995h.158zm83.017 53.922V4.695h44.666v94.757h75.6v37.683H168.614zm130.683-66.063c0-21.916 7.418-39.101 22.412-51.4 14.993-12.297 34.88-18.604 59.975-18.604s44.981 6.149 59.975 18.605c14.994 12.298 22.412 29.484 22.412 51.4 0 21.915-7.418 39.259-22.412 51.714-14.994 12.298-34.88 18.605-59.975 18.605s-44.982-6.149-59.975-18.605c-14.994-12.298-22.412-29.641-22.412-51.715zm108.902-23.965c-6.629-5.676-15.467-8.356-26.515-8.356s-19.729 2.838-26.358 8.356c-6.629 5.676-9.943 13.56-9.943 23.965 0 10.406 3.314 18.29 9.943 23.966 6.629 5.676 15.468 8.514 26.358 8.514s19.886-2.838 26.515-8.514c6.629-5.676 10.101-13.717 10.101-23.966 0-10.248-3.314-18.29-10.101-23.965zM630.896 33.39c-2.21.946-9.47 3.941-22.096 8.83-12.626 4.887-19.887 7.725-21.623 8.356-1.42-4.573-4.735-8.2-9.943-10.722-5.208-2.523-11.679-3.941-19.413-3.941-10.89 0-19.571 2.995-26.357 9.144-6.629 6.15-10.101 14.506-10.101 25.227 0 6.149 1.104 11.667 3.314 16.24 2.21 4.73 5.208 8.356 8.996 10.879a44.925 44.925 0 0012.153 5.676c4.261 1.261 8.838 1.734 13.573 1.734 7.892 0 14.678-1.419 20.518-4.257 5.84-2.838 9.786-6.78 11.68-11.983v-2.995h-53.978l11.995-31.218H635v82.617h-39.458v-11.036c-11.995 9.775-26.673 14.505-44.192 14.505-21.78 0-39.931-6.149-54.451-18.605-14.52-12.298-21.623-29.326-21.623-51.084 0-21.758 7.734-38.629 23.043-51.242C513.787 6.902 533.673.753 558.137.753c17.203 0 32.039 2.995 44.508 8.829 12.468 5.834 21.78 13.717 28.093 23.492l.158.316z" fill="#F27C00" stroke="#1D1D1B" stroke-width=".14" stroke-miterlimit="10"/></svg>