<svg width="1409" height="410" viewBox="0 0 1409 410" fill="none" xmlns="http://www.w3.org/2000/svg"><path d="M48.98 111.867L.47 8.967h27.489L63.68 86.583 99.401 8.967h27.342l-48.51 102.9H48.98zm91.126 0V34.104h23.814v77.763h-23.814zm-.294-91.287V0h24.255v20.58h-24.255zm41.931 52.479c0-12.838 3.871-22.834 11.613-29.988 7.742-7.252 18.13-10.878 31.164-10.878 10.976 0 20.139 2.989 27.489 8.967V1.617h23.814v110.25H252.45v-7.056c-7.546 5.978-16.856 8.967-27.93 8.967-12.936 0-23.324-3.577-31.164-10.731-7.742-7.252-11.613-17.248-11.613-29.988zm24.108 0c0 6.468 2.058 11.417 6.174 14.847 4.214 3.43 9.849 5.145 16.905 5.145 6.958 0 12.495-1.715 16.611-5.145 4.214-3.43 6.321-8.33 6.321-14.7 0-6.468-2.107-11.417-6.321-14.847-4.116-3.528-9.653-5.292-16.611-5.292-7.056 0-12.691 1.764-16.905 5.292-4.116 3.43-6.174 8.33-6.174 14.7zm100.954 29.988c-8.918-7.252-13.377-17.248-13.377-29.988 0-12.74 4.361-22.687 13.083-29.841 8.722-7.252 20.384-10.878 34.986-10.878 14.602 0 26.264 3.626 34.986 10.878 8.722 7.154 13.083 17.101 13.083 29.841v5.292H317.83c1.176 4.9 4.067 8.624 8.673 11.172s10.29 3.822 17.052 3.822c5.292 0 10.094-.833 14.406-2.499 4.41-1.666 7.546-3.969 9.408-6.909l19.845 10.878c-4.018 5.88-9.898 10.535-17.64 13.965-7.742 3.332-16.415 4.998-26.019 4.998-15.484 0-27.734-3.577-36.75-10.731zm56.889-40.572c-3.822-7.252-11.221-10.878-22.197-10.878-11.466 0-18.963 3.626-22.491 10.878h44.688zm120.455-19.257c8.722 7.154 13.083 17.101 13.083 29.841 0 12.74-4.361 22.736-13.083 29.988-8.722 7.154-20.384 10.731-34.986 10.731-14.602 0-26.264-3.577-34.986-10.731-8.722-7.252-13.083-17.248-13.083-29.988 0-12.74 4.361-22.687 13.083-29.841 8.722-7.252 20.384-10.878 34.986-10.878 14.602 0 26.264 3.626 34.986 10.878zm-58.947 29.841c0 6.468 2.156 11.417 6.468 14.847 4.312 3.43 10.143 5.145 17.493 5.145 7.35 0 13.181-1.715 17.493-5.145 4.41-3.43 6.615-8.379 6.615-14.847 0-6.37-2.205-11.27-6.615-14.7-4.312-3.43-10.143-5.145-17.493-5.145-7.35 0-13.181 1.715-17.493 5.145-4.312 3.43-6.468 8.33-6.468 14.7zm332.704-2.499v11.613c0 3.92.588 6.664 1.764 8.232 1.176 1.568 3.038 2.352 5.586 2.352 3.038 0 5.929-.392 8.673-1.176l-3.087 20.286c-3.038 1.078-7.056 1.617-12.054 1.617-11.172 0-18.62-4.704-22.344-14.112-8.232 9.604-19.992 14.406-35.28 14.406-8.918 0-16.366-2.156-22.344-6.468-5.88-4.41-8.82-10.241-8.82-17.493 0-18.326 21.119-27.391 63.357-27.195-1.568-6.664-8.33-9.996-20.286-9.996-11.074 0-18.914 3.234-23.52 9.702l-17.787-13.671c4.312-4.9 10.486-8.869 18.522-11.907 8.134-3.038 16.464-4.557 24.99-4.557 13.622 0 24.108 3.283 31.458 9.849 7.448 6.566 11.172 16.072 11.172 28.518zm-52.038 23.667c6.86 0 13.083-1.519 18.669-4.557 5.586-3.038 8.771-6.909 9.555-11.613v-.588c-13.034.294-22.834 1.176-29.4 2.646-6.468 1.372-9.702 3.871-9.702 7.497 0 2.058.98 3.675 2.94 4.851 1.96 1.078 4.606 1.666 7.938 1.764zm78.379 17.64V34.104h23.373v8.526c6.664-6.86 14.896-10.29 24.696-10.29 4.312 0 7.056.049 8.232.147.882 6.272 2.156 14.406 3.822 24.402-2.646-1.47-7.056-2.205-13.23-2.205-7.057 0-12.691 1.519-16.905 4.557-4.116 3.038-6.174 7.693-6.174 13.965v38.661h-23.814zm80.142-8.82c-8.918-7.252-13.377-17.248-13.377-29.988 0-12.74 4.361-22.687 13.083-29.841 8.722-7.252 20.384-10.878 34.986-10.878 14.602 0 26.264 3.626 34.986 10.878 8.722 7.154 13.083 17.101 13.083 29.841v5.292h-71.736c1.176 4.9 4.067 8.624 8.673 11.172s10.29 3.822 17.052 3.822c5.292 0 10.094-.833 14.406-2.499 4.41-1.666 7.546-3.969 9.408-6.909l19.845 10.878c-4.018 5.88-9.898 10.535-17.64 13.965-7.742 3.332-16.415 4.998-26.019 4.998-15.484 0-27.734-3.577-36.75-10.731zm56.889-40.572c-3.822-7.252-11.221-10.878-22.197-10.878-11.466 0-18.963 3.626-22.491 10.878h44.688zm-845.25 152.58l19.992 11.76c-4.116 5.978-9.898 10.633-17.346 13.965-7.35 3.332-15.729 4.998-25.137 4.998-14.798 0-26.607-3.577-35.427-10.731-8.722-7.252-13.083-17.248-13.083-29.988 0-12.74 4.41-22.687 13.23-29.841 8.82-7.252 20.531-10.878 35.133-10.878 9.408 0 17.787 1.617 25.137 4.851 7.35 3.234 13.034 7.742 17.052 13.524l-20.286 12.054c-3.724-6.37-11.025-9.555-21.903-9.555-7.252 0-13.132 1.764-17.64 5.292-4.41 3.43-6.615 8.281-6.615 14.553 0 6.468 2.205 11.417 6.615 14.847 4.508 3.43 10.437 5.145 17.787 5.145 5.194 0 9.8-.882 13.818-2.646 4.018-1.764 6.909-4.214 8.673-7.35zm34.499 28.812v-77.763H133.9v8.526c6.664-6.86 14.896-10.29 24.696-10.29 4.312 0 7.056.049 8.232.147.882 6.272 2.156 14.406 3.822 24.402-2.646-1.47-7.056-2.205-13.23-2.205-7.056 0-12.691 1.519-16.905 4.557-4.116 3.038-6.174 7.693-6.174 13.965v38.661h-23.814zm159.523-77.763v77.763h-23.373v-8.526c-7.35 6.86-17.052 10.29-29.106 10.29-10.976 0-19.845-2.94-26.607-8.82-6.664-5.88-9.996-13.671-9.996-23.373v-47.334h23.814v42.483c0 5.194 1.568 9.212 4.704 12.054 3.136 2.842 7.742 4.263 13.818 4.263 6.174 0 11.466-1.666 15.876-4.998 4.508-3.332 6.86-7.938 7.056-13.818v-39.984h23.814zm88.637 48.951l19.992 11.76c-4.116 5.978-9.898 10.633-17.346 13.965-7.35 3.332-15.729 4.998-25.137 4.998-14.798 0-26.607-3.577-35.427-10.731-8.722-7.252-13.083-17.248-13.083-29.988 0-12.74 4.41-22.687 13.23-29.841 8.82-7.252 20.531-10.878 35.133-10.878 9.408 0 17.787 1.617 25.137 4.851 7.35 3.234 13.034 7.742 17.052 13.524l-20.286 12.054c-3.724-6.37-11.025-9.555-21.903-9.555-7.252 0-13.132 1.764-17.64 5.292-4.41 3.43-6.615 8.281-6.615 14.553 0 6.468 2.205 11.417 6.615 14.847 4.508 3.43 10.437 5.145 17.787 5.145 5.194 0 9.8-.882 13.818-2.646 4.018-1.764 6.909-4.214 8.673-7.35zm34.793 28.812v-77.763h23.814v77.763H393.48zm-.294-91.287V132h24.255v20.58h-24.255zm130.278 49.98v11.613c0 3.92.588 6.664 1.764 8.232 1.176 1.568 3.038 2.352 5.586 2.352 3.038 0 5.929-.392 8.673-1.176l-3.087 20.286c-3.038 1.078-7.056 1.617-12.054 1.617-11.172 0-18.62-4.704-22.344-14.112-8.232 9.604-19.992 14.406-35.28 14.406-8.918 0-16.366-2.156-22.344-6.468-5.88-4.41-8.82-10.241-8.82-17.493 0-18.326 21.119-27.391 63.357-27.195-1.568-6.664-8.33-9.996-20.286-9.996-11.074 0-18.914 3.234-23.52 9.702l-17.787-13.671c4.312-4.9 10.486-8.869 18.522-11.907 8.134-3.038 16.464-4.557 24.99-4.557 13.622 0 24.108 3.283 31.458 9.849 7.448 6.566 11.172 16.072 11.172 28.518zm-52.038 23.667c6.86 0 13.083-1.519 18.669-4.557 5.586-3.038 8.771-6.909 9.555-11.613v-.588c-13.034.294-22.834 1.176-29.4 2.646-6.468 1.372-9.702 3.871-9.702 7.497 0 2.058.98 3.675 2.94 4.851 1.96 1.078 4.606 1.666 7.938 1.764zm78.378 17.64v-110.25h23.814v110.25h-23.814zm81.476-56.301v-20.139h13.818V156.99l23.814-15.876v26.313h16.023v20.139h-16.023v26.754c0 3.92.588 6.664 1.764 8.232 1.176 1.47 3.185 2.205 6.027 2.205 2.548 0 5.782-.441 9.702-1.323l-3.234 20.286c-3.92 1.176-8.281 1.764-13.083 1.764-8.526 0-14.847-2.303-18.963-6.909-4.018-4.606-6.027-11.809-6.027-21.609v-29.4H631.28zm149.597-12.348c8.722 7.154 13.083 17.101 13.083 29.841 0 12.74-4.361 22.736-13.083 29.988-8.722 7.154-20.384 10.731-34.986 10.731-14.602 0-26.264-3.577-34.986-10.731-8.722-7.252-13.083-17.248-13.083-29.988 0-12.74 4.361-22.687 13.083-29.841 8.722-7.252 20.384-10.878 34.986-10.878 14.602 0 26.264 3.626 34.986 10.878zm-58.947 29.841c0 6.468 2.156 11.417 6.468 14.847 4.312 3.43 10.143 5.145 17.493 5.145 7.35 0 13.181-1.715 17.493-5.145 4.41-3.43 6.615-8.379 6.615-14.847 0-6.37-2.205-11.27-6.615-14.7-4.312-3.43-10.143-5.145-17.493-5.145-7.35 0-13.181 1.715-17.493 5.145-4.312 3.43-6.468 8.33-6.468 14.7zm84.276 0c0-12.838 3.871-22.834 11.613-29.988 7.742-7.252 18.13-10.878 31.164-10.878 10.976 0 20.139 2.989 27.489 8.967v-39.543h23.814v110.25h-23.373v-7.056c-7.546 5.978-16.856 8.967-27.93 8.967-12.936 0-23.324-3.577-31.164-10.731-7.742-7.252-11.613-17.248-11.613-29.988zm24.108 0c0 6.468 2.058 11.417 6.174 14.847 4.214 3.43 9.849 5.145 16.905 5.145 6.958 0 12.495-1.715 16.611-5.145 4.214-3.43 6.321-8.33 6.321-14.7 0-6.468-2.107-11.417-6.321-14.847-4.116-3.528-9.653-5.292-16.611-5.292-7.056 0-12.691 1.764-16.905 5.292-4.116 3.43-6.174 8.33-6.174 14.7zm175.926-2.499v11.613c0 3.92.59 6.664 1.76 8.232 1.18 1.568 3.04 2.352 5.59 2.352 3.04 0 5.93-.392 8.67-1.176l-3.09 20.286c-3.03 1.078-7.05 1.617-12.05 1.617-11.172 0-18.62-4.704-22.344-14.112-8.232 9.604-19.992 14.406-35.28 14.406-8.918 0-16.366-2.156-22.344-6.468-5.88-4.41-8.82-10.241-8.82-17.493 0-18.326 21.119-27.391 63.357-27.195-1.568-6.664-8.33-9.996-20.286-9.996-11.074 0-18.914 3.234-23.52 9.702l-17.787-13.671c4.312-4.9 10.486-8.869 18.522-11.907 8.134-3.038 16.464-4.557 24.99-4.557 13.622 0 24.108 3.283 31.458 9.849 7.444 6.566 11.174 16.072 11.174 28.518zm-52.04 23.667c6.86 0 13.083-1.519 18.669-4.557 5.586-3.038 8.771-6.909 9.555-11.613v-.588c-13.034.294-22.834 1.176-29.4 2.646-6.468 1.372-9.702 3.871-9.702 7.497 0 2.058.98 3.675 2.94 4.851 1.96 1.078 4.606 1.666 7.938 1.764zm171.28-60.123l-40.57 85.407c-4.61 9.408-9.41 16.121-14.41 20.139-4.99 4.018-10.97 6.027-17.93 6.027-2.45 0-5.63-.49-9.55-1.47l-3.83-21.609c2.85.882 5.54 1.323 8.09 1.323 5.88 0 10.39-2.156 13.52-6.468l.74-1.176c.59-.686.93-1.127 1.03-1.323l-41.16-80.85h25.87l27.63 54.537 25.14-54.537h25.43zm81.75-1.911v1.911c.09.784.14 1.421.14 1.911h15.58v20.139h-15.58v55.713h-23.81v-55.713h-12.06v-20.139h12.06v-4.704c0-9.8 2.25-17.248 6.76-22.344 4.61-5.194 11.17-7.791 19.7-7.791 4.6 0 8.82.637 12.64 1.911l3.23 20.727c-3.52-1.274-6.81-1.911-9.84-1.911-5.88 0-8.82 3.43-8.82 10.29zm110.11 11.025c8.72 7.154 13.08 17.101 13.08 29.841 0 12.74-4.36 22.736-13.08 29.988-8.72 7.154-20.38 10.731-34.99 10.731-14.6 0-26.26-3.577-34.98-10.731-8.72-7.252-13.08-17.248-13.08-29.988 0-12.74 4.36-22.687 13.08-29.841 8.72-7.252 20.38-10.878 34.98-10.878 14.61 0 26.27 3.626 34.99 10.878zm-58.95 29.841c0 6.468 2.16 11.417 6.47 14.847 4.31 3.43 10.14 5.145 17.49 5.145 7.35 0 13.19-1.715 17.5-5.145 4.41-3.43 6.61-8.379 6.61-14.847 0-6.37-2.2-11.27-6.61-14.7-4.31-3.43-10.15-5.145-17.5-5.145s-13.18 1.715-17.49 5.145c-4.31 3.43-6.47 8.33-6.47 14.7zm89.87 38.808v-77.763h23.37v8.526c6.66-6.86 14.89-10.29 24.69-10.29 4.32 0 7.06.049 8.24.147.88 6.272 2.15 14.406 3.82 24.402-2.65-1.47-7.06-2.205-13.23-2.205-7.06 0-12.69 1.519-16.91 4.557-4.11 3.038-6.17 7.693-6.17 13.965v38.661h-23.81zM93.374 334.56v11.613c0 3.92.588 6.664 1.764 8.232 1.176 1.568 3.038 2.352 5.586 2.352 3.038 0 5.929-.392 8.673-1.176l-3.087 20.286c-3.038 1.078-7.056 1.617-12.054 1.617-11.172 0-18.62-4.704-22.344-14.112-8.232 9.604-19.992 14.406-35.28 14.406-8.918 0-16.366-2.156-22.344-6.468-5.88-4.41-8.82-10.241-8.82-17.493 0-18.326 21.119-27.391 63.357-27.195-1.568-6.664-8.33-9.996-20.286-9.996-11.074 0-18.914 3.234-23.52 9.702L7.232 312.657c4.312-4.9 10.486-8.869 18.522-11.907 8.134-3.038 16.464-4.557 24.99-4.557 13.622 0 24.108 3.283 31.458 9.849 7.448 6.566 11.172 16.072 11.172 28.518zm-52.038 23.667c6.86 0 13.083-1.519 18.669-4.557 5.586-3.038 8.771-6.909 9.555-11.613v-.588c-13.034.294-22.834 1.176-29.4 2.646-6.468 1.372-9.702 3.871-9.702 7.497 0 2.058.98 3.675 2.94 4.851 1.96 1.078 4.606 1.666 7.938 1.764zm143.794 17.64v-42.63c-.098-5.096-1.715-9.016-4.851-11.76-3.136-2.842-7.742-4.263-13.818-4.263-6.566 0-12.005 1.666-16.317 4.998-4.214 3.332-6.419 8.036-6.615 14.112v39.543h-23.814v-77.763h23.373v8.673c7.252-6.958 16.954-10.437 29.106-10.437 10.878 0 19.698 2.989 26.46 8.967 6.762 5.88 10.143 13.671 10.143 23.373v47.187H185.13zm138.026-77.763l-40.572 85.407c-4.606 9.408-9.408 16.121-14.406 20.139-4.998 4.018-10.976 6.027-17.934 6.027-2.45 0-5.635-.49-9.555-1.47l-3.822-21.609c2.842.882 5.537 1.323 8.085 1.323 5.88 0 10.388-2.156 13.524-6.468l.735-1.176c.588-.686.931-1.127 1.029-1.323l-41.16-80.85h25.872l27.636 54.537 25.137-54.537h25.431zm147.745 38.955c0 12.74-3.92 22.736-11.76 29.988-7.742 7.154-18.081 10.731-31.017 10.731-11.27 0-20.58-2.989-27.93-8.967v7.056h-23.373v-110.25h23.814v39.543c7.252-5.978 16.415-8.967 27.489-8.967 13.034 0 23.422 3.626 31.164 10.878 7.742 7.154 11.613 17.15 11.613 29.988zm-70.119 0c0 6.468 2.058 11.417 6.174 14.847 4.214 3.43 9.8 5.145 16.758 5.145 7.056 0 12.642-1.715 16.758-5.145 4.214-3.43 6.321-8.379 6.321-14.847 0-6.37-2.107-11.27-6.321-14.7-4.116-3.528-9.702-5.292-16.758-5.292-6.958 0-12.544 1.764-16.758 5.292-4.116 3.43-6.174 8.33-6.174 14.7zm175.039-38.955v77.763h-23.373v-8.526c-7.35 6.86-17.052 10.29-29.106 10.29-10.976 0-19.845-2.94-26.607-8.82-6.664-5.88-9.996-13.671-9.996-23.373v-47.334h23.814v42.483c0 5.194 1.568 9.212 4.704 12.054 3.136 2.842 7.742 4.263 13.818 4.263 6.174 0 11.466-1.666 15.876-4.998 4.508-3.332 6.86-7.938 7.056-13.818v-39.984h23.814zm59.532 47.04c-26.166-2.058-39.249-9.653-39.249-22.785 0-8.134 3.822-14.553 11.466-19.257 7.742-4.704 18.179-7.056 31.311-7.056 9.506 0 18.375 1.666 26.607 4.998 8.33 3.332 14.504 7.791 18.522 13.377l-20.286 10.437c-2.156-2.94-5.782-5.243-10.878-6.909-4.998-1.764-10.437-2.646-16.317-2.646-10.878 0-16.317 1.764-16.317 5.292 0 1.862 1.813 3.234 5.439 4.116 3.626.784 9.947 1.617 18.963 2.499 27.44 2.548 41.16 10.976 41.16 25.284 0 8.134-4.067 14.455-12.201 18.963-8.036 4.41-18.914 6.615-32.634 6.615-10.976 0-20.874-1.715-29.694-5.145-8.722-3.43-15.484-8.134-20.286-14.112l20.139-11.319c3.038 3.43 7.448 6.174 13.23 8.232 5.782 2.058 12.005 3.087 18.669 3.087 11.858 0 17.787-2.107 17.787-6.321 0-2.254-1.96-3.822-5.88-4.704-3.822-.98-10.339-1.862-19.551-2.646zm66.196 30.723v-77.763h23.814v77.763h-23.814zm-.294-91.287V264h24.255v20.58h-24.255zm112.931 91.287v-42.63c-.098-5.096-1.715-9.016-4.851-11.76-3.136-2.842-7.742-4.263-13.818-4.263-6.566 0-12.005 1.666-16.317 4.998-4.214 3.332-6.419 8.036-6.615 14.112v39.543h-23.814v-77.763h23.373v8.673c7.252-6.958 16.954-10.437 29.106-10.437 10.878 0 19.698 2.989 26.46 8.967 6.762 5.88 10.143 13.671 10.143 23.373v47.187h-23.667zm52.913-8.82c-8.918-7.252-13.377-17.248-13.377-29.988 0-12.74 4.361-22.687 13.083-29.841 8.722-7.252 20.384-10.878 34.986-10.878 14.602 0 26.264 3.626 34.986 10.878 8.722 7.154 13.083 17.101 13.083 29.841v5.292h-71.736c1.176 4.9 4.067 8.624 8.673 11.172s10.29 3.822 17.052 3.822c5.292 0 10.094-.833 14.406-2.499 4.41-1.666 7.546-3.969 9.408-6.909l19.845 10.878c-4.018 5.88-9.898 10.535-17.64 13.965-7.742 3.332-16.415 4.998-26.019 4.998-15.484 0-27.734-3.577-36.75-10.731zm56.889-40.572c-3.822-7.252-11.221-10.878-22.197-10.878-11.466 0-18.963 3.626-22.491 10.878h44.688zm79.292 18.669c-26.163-2.058-39.246-9.653-39.246-22.785 0-8.134 3.822-14.553 11.466-19.257 7.742-4.704 18.179-7.056 31.31-7.056 9.51 0 18.38 1.666 26.61 4.998 8.33 3.332 14.5 7.791 18.52 13.377l-20.29 10.437c-2.15-2.94-5.78-5.243-10.87-6.909-5-1.764-10.44-2.646-16.32-2.646-10.879 0-16.318 1.764-16.318 5.292 0 1.862 1.813 3.234 5.439 4.116 3.626.784 9.949 1.617 18.959 2.499 27.44 2.548 41.16 10.976 41.16 25.284 0 8.134-4.06 14.455-12.2 18.963-8.03 4.41-18.91 6.615-32.63 6.615-10.977 0-20.875-1.715-29.695-5.145-8.722-3.43-15.484-8.134-20.286-14.112l20.139-11.319c3.038 3.43 7.448 6.174 13.23 8.232 5.782 2.058 12.002 3.087 18.672 3.087 11.86 0 17.78-2.107 17.78-6.321 0-2.254-1.96-3.822-5.88-4.704-3.82-.98-10.33-1.862-19.55-2.646zm102.21 0c-26.16-2.058-39.24-9.653-39.24-22.785 0-8.134 3.82-14.553 11.46-19.257 7.74-4.704 18.18-7.056 31.31-7.056 9.51 0 18.38 1.666 26.61 4.998 8.33 3.332 14.5 7.791 18.52 13.377l-20.28 10.437c-2.16-2.94-5.79-5.243-10.88-6.909-5-1.764-10.44-2.646-16.32-2.646-10.88 0-16.32 1.764-16.32 5.292 0 1.862 1.82 3.234 5.44 4.116 3.63.784 9.95 1.617 18.97 2.499 27.44 2.548 41.16 10.976 41.16 25.284 0 8.134-4.07 14.455-12.21 18.963-8.03 4.41-18.91 6.615-32.63 6.615-10.98 0-20.87-1.715-29.69-5.145-8.73-3.43-15.49-8.134-20.29-14.112l20.14-11.319c3.04 3.43 7.45 6.174 13.23 8.232 5.78 2.058 12 3.087 18.67 3.087 11.86 0 17.79-2.107 17.79-6.321 0-2.254-1.96-3.822-5.88-4.704-3.83-.98-10.34-1.862-19.56-2.646zM548.894 81.438c-26.166-2.058-39.249-9.653-39.249-22.785 0-8.134 3.822-14.553 11.466-19.257 7.742-4.704 18.179-7.056 31.311-7.056 9.506 0 18.375 1.666 26.607 4.998 8.33 3.332 14.504 7.791 18.522 13.377l-20.286 10.437c-2.156-2.94-5.782-5.243-10.878-6.909-4.998-1.764-10.437-2.646-16.317-2.646-10.878 0-16.317 1.764-16.317 5.292 0 1.862 1.813 3.234 5.439 4.116 3.626.784 9.947 1.617 18.963 2.499 27.44 2.548 41.16 10.976 41.16 25.284 0 8.134-4.067 14.455-12.201 18.963-8.036 4.41-18.914 6.615-32.634 6.615-10.976 0-20.874-1.715-29.694-5.145-8.722-3.43-15.484-8.134-20.286-14.112l20.139-11.319c3.038 3.43 7.448 6.174 13.23 8.232 5.782 2.058 12.005 3.087 18.669 3.087 11.858 0 17.787-2.107 17.787-6.321 0-2.254-1.96-3.822-5.88-4.704-3.822-.98-10.339-1.862-19.551-2.646z" fill="#00005E"/></svg>