<svg width="1363" height="143" viewBox="0 0 1363 143" fill="none" xmlns="http://www.w3.org/2000/svg"><path d="M0 137.795V3.672h84.299c17.242 0 30.654 3.673 40.073 11.177 9.42 7.345 14.21 17.883 14.21 31.615 0 28.581-19.798 42.951-59.552 42.951H45.183v48.54H0v-.16zM81.584 37.203H45.183v18.522h36.401c7.025 0 10.538-3.194 10.538-9.42 0-6.228-3.513-9.261-10.538-9.261v.16zm64.98 33.691c0-22.195 7.504-39.599 22.672-52.053C184.403 6.227 204.679 0 229.905 0s45.502 6.227 60.669 18.841c15.168 12.454 22.672 29.858 22.672 52.053 0 22.194-7.504 39.758-22.672 52.371-15.167 12.455-35.284 18.842-60.669 18.842-25.385 0-45.502-6.228-60.669-18.842-15.168-12.454-22.672-30.017-22.672-52.371zm110.163-24.27c-6.705-5.748-15.646-8.463-26.822-8.463-11.176 0-19.957 2.874-26.663 8.463-6.705 5.748-10.058 13.731-10.058 24.27 0 10.538 3.353 18.521 10.058 24.27 6.706 5.748 15.647 8.622 26.663 8.622s20.117-2.874 26.822-8.623c6.706-5.748 10.218-13.89 10.218-24.27 0-10.378-3.352-18.521-10.218-24.27zm79.35 91.171V3.672h78.391c39.755 0 59.552 13.732 59.552 41.036 0 9.26-2.395 16.925-7.344 23.312-4.949 6.386-11.815 10.857-20.755 13.572l46.3 56.363h-52.846l-41.83-52.052H381.1v52.052h-45.183l.16-.16zm81.106-101.23H381.42v17.084h35.763c3.193 0 5.747-.798 7.663-2.235 1.916-1.437 2.874-3.513 2.874-6.227 0-5.748-3.513-8.622-10.537-8.622zm223.039 5.428h-52.367v95.802h-45.183V41.993h-52.367V3.673h149.757v38.32h.16zm18.52 95.802V3.672h121.499v35.926h-76.316V53.17h68.333v35.287h-68.333v49.179h-45.183v.159zM794.77 70.894c0-22.195 7.503-39.599 22.671-52.053C832.608 6.387 852.725 0 878.11 0c25.385 0 45.502 6.227 60.67 18.841 15.167 12.454 22.671 29.858 22.671 52.053 0 22.194-7.504 39.758-22.671 52.371-15.168 12.455-35.285 18.842-60.67 18.842-25.385 0-45.502-6.228-60.669-18.842-15.168-12.454-22.671-30.017-22.671-52.371zm110.162-24.27c-6.705-5.748-15.646-8.463-26.822-8.463-11.176 0-19.957 2.874-26.662 8.463-6.706 5.748-10.059 13.731-10.059 24.27 0 10.538 3.353 18.521 10.059 24.27 6.705 5.748 15.646 8.622 26.662 8.622 11.016 0 20.117-2.874 26.822-8.623 6.706-5.748 10.218-13.89 10.218-24.27 0-10.378-3.352-18.521-10.218-24.27zm79.189 91.171V3.672h45.179v95.962h76.48v38.161H984.121zm143.529 0V3.672h45.19v134.123h-45.19zm68.02-66.901c0-22.195 7.5-39.599 22.67-52.053C1233.5 6.387 1253.62 0 1279.01 0c25.38 0 45.5 6.227 60.67 18.841 15.16 12.454 22.67 29.858 22.67 52.053 0 22.194-7.51 39.758-22.67 52.371-15.17 12.455-35.29 18.842-60.67 18.842-25.39 0-45.51-6.228-60.67-18.842-15.17-12.454-22.67-30.017-22.67-52.371zm110.16-24.27c-6.71-5.748-15.65-8.463-26.82-8.463-11.18 0-19.96 2.874-26.67 8.463-6.7 5.748-10.05 13.731-10.05 24.27 0 10.538 3.35 18.521 10.05 24.27 6.71 5.748 15.65 8.622 26.67 8.622 11.01 0 20.11-2.874 26.82-8.623 6.7-5.748 10.22-13.89 10.22-24.27 0-10.378-3.36-18.521-10.22-24.27z" fill="#F27C00"/></svg>