<svg width="1439" height="497" viewBox="0 0 1439 497" fill="none" xmlns="http://www.w3.org/2000/svg"><path d="M29.91 232.005V1h134.896c68.41 0 102.477 23.65 102.477 70.677 0 15.95-4.121 29.15-12.637 40.151-8.517 11-20.331 18.7-35.716 23.375l79.674 97.077h-90.939l-71.981-89.652h-28.298v89.652H29.91v-.275zM169.477 57.926h-61.541v29.426h61.541c5.495 0 9.89-1.375 13.187-3.85 3.297-2.475 4.945-6.05 4.945-10.725 0-9.9-6.044-14.85-18.132-14.85zM322.412 232.28V1h212.341v59.748H400.556v20.374h120.391v56.719H400.556v34.692h136.13v59.472H322.412v.275zM103.396 489.07L1 257.789h86.706l61.108 154.738 61.658-154.738h86.431L194.507 489.07h-91.111zm224.118 0V257.789h78.227V489.07h-78.227zm136.047 0V257.789h212.342v59.748H541.705v20.374h120.391v56.719H541.705v34.692h136.13v59.472H463.561v.276zm330.231 0l-87.046-231.281h85.393l47.38 144.826 51.511-144.826h82.639l51.511 144.826 46.83-144.826h85.39l-87.04 231.281h-82.918l-55.093-140.421-55.643 140.421h-82.914zm375.788-60.699l73.23-24.521c3.86 8.817 11.84 15.98 23.95 21.766 12.12 5.786 26.16 8.541 42.67 8.541 31.94 0 47.91-5.786 47.91-17.082 0-6.061-4.41-10.194-12.94-12.674-8.81-2.479-25.61-4.683-50.38-6.336-75.43-5.511-112.88-28.929-112.88-69.981 0-23.143 11.02-42.154 32.77-56.756 22.02-14.602 51.75-22.041 89.47-22.041 32.21 0 60.01 5.785 83.14 17.082 23.4 11.296 39.64 25.622 48.45 43.255l-73.23 26.725c-2.48-7.99-8.81-14.326-18.99-18.735-10.19-4.408-23.4-6.888-39.37-6.888-11.84 0-21.75 1.378-29.46 3.858-7.71 2.755-11.56 6.061-11.56 10.469 0 3.857 3.85 6.613 11.29 8.817 7.7 2.204 21.74 4.132 42.12 6.061 18.72 1.653 35.24 3.857 49.55 7.163 14.32 3.307 26.98 7.715 38.27 13.501 11.28 5.785 19.82 13.224 25.6 22.592 5.78 9.367 8.81 20.112 8.81 32.786 0 13.776-3.3 26.174-10.19 36.644-6.88 10.469-16.24 18.735-28.63 25.071-12.11 6.062-26.15 10.746-41.57 13.776-15.41 3.031-32.76 4.408-51.75 4.408-31.94 0-59.74-6.061-83.7-18.184-23.67-12.122-41.29-28.378-52.85-49.041l.27-.276z" fill="#180325" stroke="#1D1D1B" stroke-width=".28" stroke-miterlimit="10"/></svg>