<svg width="1218" height="142" viewBox="0 0 1218 142" fill="none" xmlns="http://www.w3.org/2000/svg"><path d="M.159 103.065l42.249-14.112c2.224 5.074 6.83 9.196 13.818 12.526 6.989 3.33 15.09 4.915 24.62 4.915 18.424 0 27.636-3.329 27.636-9.83 0-3.489-2.542-5.867-7.465-7.294-5.083-1.427-14.772-2.696-29.066-3.647C28.59 82.452 6.83 68.974 6.83 45.348c0-13.319 6.353-24.26 18.9-32.663C38.438 4.28 55.75 0 77.35 0c18.584 0 34.626 3.33 47.968 9.83 13.501 6.502 22.872 14.747 27.954 24.895l-42.249 15.38c-1.429-4.598-5.083-8.245-10.959-10.782-5.877-2.537-13.5-3.964-22.713-3.964-6.83 0-12.548.793-16.995 2.22-4.447 1.585-6.671 3.488-6.671 6.025 0 2.22 2.224 3.806 6.512 5.074 4.447 1.269 12.548 2.379 24.301 3.489 10.8.95 20.331 2.22 28.59 4.122 8.259 1.903 15.565 4.44 22.077 7.77 6.513 3.33 11.436 7.61 14.772 13.002 3.335 5.39 5.082 11.574 5.082 18.868 0 7.928-1.906 15.064-5.876 21.089-3.971 6.025-9.371 10.782-16.519 14.429-6.988 3.488-15.089 6.184-23.983 7.928-8.895 1.744-18.901 2.537-29.86 2.537-18.425 0-34.467-3.488-48.285-10.465C16.836 124.47 6.67 115.115 0 103.223l.159-.158zm179.48 34.09V3.964H301.78v34.408h-77.192v11.733h69.251V82.77h-69.251v19.978h78.304v34.249H179.639v.159zm155.019 0V3.964h77.987c39.549 0 59.244 13.636 59.244 40.75 0 9.197-2.383 16.808-7.307 23.15-4.923 6.342-11.753 10.782-20.648 13.478l46.061 55.972h-52.573l-41.614-51.691h-16.359v51.691H334.5l.158-.159zm80.687-100.528h-35.579v16.966h35.579c3.176 0 5.718-.792 7.624-2.22 1.906-1.426 2.859-3.488 2.859-6.183 0-5.709-3.495-8.563-10.483-8.563zm131.194 100.528L487.295 3.964h50.191l35.26 89.111 35.737-89.111h49.873l-59.085 133.191h-52.732zm129.13 0V3.964h44.949v133.191h-44.949zm222.999-101.32L858.484 56.13c-4.606-11.892-15.248-17.917-32.243-17.917-11.118 0-19.854 2.854-26.525 8.404-6.671 5.708-10.006 13.636-10.006 24.101s3.335 18.393 10.006 24.101c6.671 5.708 15.566 8.563 26.525 8.563 16.836 0 27.637-6.026 32.719-18.235l40.185 20.296c-6.036 10.465-15.248 19.186-27.955 25.845-12.706 6.66-27.636 9.99-45.108 9.99-25.095 0-45.267-6.184-60.356-18.711-15.089-12.367-22.554-29.809-22.554-52.007 0-22.199 7.465-39.324 22.554-51.691C780.815 6.5 800.828.159 826.082.159c17.313 0 32.243 3.33 44.632 9.83 12.548 6.66 21.76 15.064 27.795 25.529l.159.317zm20.013 101.32V3.964h122.139v34.408h-77.19v11.733h69.25V82.77h-69.25v19.978h78.3v34.249H918.681v.159zm143.739-34.09l42.25-14.112c2.23 5.074 6.83 9.196 13.82 12.526s15.09 4.915 24.62 4.915c18.42 0 27.64-3.329 27.64-9.83 0-3.489-2.55-5.867-7.47-7.294-5.08-1.427-14.77-2.696-29.07-3.647-43.52-3.171-65.12-16.649-65.12-40.275 0-13.319 6.36-24.26 18.9-32.663C1100.7 4.28 1117.85 0 1139.61 0c18.59 0 34.63 3.33 47.97 9.83 13.5 6.502 22.87 14.747 27.96 24.895l-42.25 15.38c-1.43-4.598-5.09-8.245-10.96-10.782-5.88-2.537-13.5-3.964-22.72-3.964-6.83 0-12.54.793-16.99 2.22-4.45 1.585-6.67 3.488-6.67 6.025 0 2.22 2.22 3.806 6.51 5.074 4.45 1.269 12.55 2.379 24.3 3.489 10.8.95 20.33 2.22 28.59 4.122 8.26 1.903 15.57 4.44 22.08 7.77 6.51 3.33 11.44 7.61 14.77 13.002 3.34 5.39 5.08 11.574 5.08 18.868 0 7.928-1.9 15.064-5.87 21.089-3.97 6.025-9.37 10.782-16.52 14.429-6.99 3.488-15.09 6.184-23.99 7.928-8.89 1.744-18.9 2.537-29.86 2.537-18.42 0-34.46-3.488-48.28-10.465-13.66-6.977-23.83-16.332-30.5-28.224l.16-.158z" fill="#F27C00"/></svg>