<svg width="1220" height="290" viewBox="0 0 1220 290" fill="none" xmlns="http://www.w3.org/2000/svg"><path d="M50.94 135.189L.067 0h49.906l27.69 84.654L107.767 0h48.296l30.104 84.654L213.536 0h49.906L212.57 135.189h-48.457l-32.197-82.08-32.52 82.08H50.94zm331.954 0V76.446h-54.735v58.743h-45.56V0h45.56v37.82h54.735V0h45.72v135.189h-45.72zM560.784 0l60.531 135.189h-50.389l-14.166-33.797h-45.721l-14.167 33.797h-50.066L507.015 0h53.769zm-14.811 68.238l-11.752-29.13h-.322l-11.913 29.13h24.148-.161zM754.29 38.625h-52.803v96.564h-45.56V38.625h-52.803V0h151.005v38.625h.161zm108.988 96.564L812.567 0h49.906l27.69 84.654L920.106 0h48.296l30.105 84.654L1025.87 0h49.91l-50.87 135.189h-48.458l-32.198-82.08-32.519 82.08h-48.457zm231.662 0V0h123.8v34.924h-78.24v11.91h70.19v33.153h-70.19v20.278h79.36v34.763h-124.92v.161zm-785.295 47.022l-40.73 20.601c-4.668-12.071-15.454-18.187-32.68-18.187-11.269 0-20.123 2.897-26.885 8.53-6.761 5.794-10.142 13.841-10.142 24.463 0 10.622 3.381 18.669 10.142 24.463 6.762 5.793 15.777 8.69 26.885 8.69 17.065 0 28.012-6.115 33.163-18.508l40.73 20.601c-6.118 10.622-15.455 19.473-28.334 26.233-12.879 6.759-28.011 10.139-45.72 10.139-25.436 0-45.881-6.277-61.175-18.991-15.294-12.553-22.86-30.257-22.86-52.788 0-22.531 7.566-39.913 22.86-52.466C190.193 152.438 210.477 146 236.074 146c17.548 0 32.68 3.38 45.237 9.978 12.718 6.76 22.056 15.289 28.173 25.911l.161.322zm118.003-32.348l60.531 135.188H437.79l-14.166-33.797h-45.721l-14.166 33.797H313.67l60.209-135.188h53.769zm-14.811 68.238l-11.752-29.13h-.322l-11.913 29.13h24.148-.161zm188.838 66.95l-51.355-77.25v77.25h-44.11V149.863h55.701l51.355 77.411v-77.411h44.11v135.188h-55.701zm276.897-117.646c15.133 11.749 22.699 28.486 22.699 50.213s-7.566 38.464-22.538 50.052c-15.133 11.588-35.417 17.381-61.175 17.381h-70.834V149.863h70.834c25.597 0 46.042 5.793 61.175 17.542h-.161zm-23.987 50.213c0-9.978-3.381-17.221-9.981-22.049-6.601-4.828-15.616-7.081-27.207-7.081h-25.275v58.099h27.69c10.625 0 19.157-2.575 25.436-7.403 6.278-4.828 9.337-12.071 9.337-21.566zm58.277 0c0-22.371 7.566-39.913 22.86-52.466 15.294-12.554 35.578-18.991 61.175-18.991 25.593 0 45.883 6.277 61.173 18.991 15.3 12.553 22.86 30.095 22.86 52.466 0 22.37-7.56 40.074-22.86 52.788-15.29 12.553-35.58 18.991-61.173 18.991-25.597 0-45.881-6.277-61.175-18.991-15.294-12.553-22.86-30.257-22.86-52.788zm111.078-24.463c-6.76-5.794-15.77-8.53-27.043-8.53-11.269 0-20.124 2.897-26.885 8.53-6.761 5.794-10.142 13.841-10.142 24.463 0 10.622 3.381 18.669 10.142 24.463 6.761 5.793 15.777 8.69 26.885 8.69 11.103 0 20.283-2.897 27.043-8.69 6.76-5.794 10.31-14.002 10.31-24.463s-3.39-18.669-10.31-24.463z" fill="#F27C00"/></svg>