<svg width="42" height="42" viewBox="0 0 42 42" fill="none" xmlns="http://www.w3.org/2000/svg"><path d="M41.995 5.33v31.334c-.024.045-.067.088-.074.135-.521 3.062-3.025 5.192-6.122 5.197-3.145.004-6.289 0-9.431 0h-.423v-14.85h6.199l1.23-7.383h-7.422v-5.008h7.409V7.392c-.104-.004-.185-.013-.264-.011-2.678.022-5.362-.056-8.032.099-3.297.191-6.196 3.138-6.434 6.443-.129 1.768-.066 3.552-.09 5.327v.524h-4.89v7.39h4.863v14.834h-.392c-3.992 0-7.982.005-11.975 0a6.125 6.125 0 01-6.14-6.146C.002 25.954-.01 16.056.014 6.157.02 3.602 1.262 1.741 3.534.598 4.094.318 4.732.196 5.335 0h31.332c.045.025.085.065.135.074 2.654.513 4.325 2.081 5.038 4.684.052.191.106.382.16.574l-.005-.003z" fill="#fff"/></svg>