<svg width="42" height="42" viewBox="0 0 42 42" fill="none" xmlns="http://www.w3.org/2000/svg"><path d="M20.901 13.517a7.197 7.197 0 00-7.235 7.236c0 4.02 3.219 7.225 7.249 7.225a7.197 7.197 0 007.233-7.238c0-4.024-3.213-7.225-7.247-7.223zM35.605 0H6.393A6.39 6.39 0 000 6.386v29.228A6.392 6.392 0 006.395 42h29.21A6.392 6.392 0 0042 35.614V6.386A6.392 6.392 0 0035.605 0zM20.91 32.801c-6.604.005-12.082-5.473-12.071-12.072.011-6.604 5.499-12.057 12.107-12.032 6.615.024 12.07 5.513 12.03 12.11-.037 6.577-5.484 11.992-12.066 11.996v-.002zM34.767 9.334c-1.265.013-2.412-1.117-2.428-2.39-.014-1.262 1.116-2.408 2.39-2.424 1.267-.014 2.415 1.115 2.428 2.387.014 1.262-1.118 2.41-2.39 2.424v.003z" fill="#fff"/></svg>