<svg width="42" height="42" viewBox="0 0 42 42" fill="none" xmlns="http://www.w3.org/2000/svg"><path d="M0 37.007V4.913c.027-.06.067-.116.078-.179C.434 2.856 1.46 1.466 3.164.61 3.713.335 4.334.2 4.922 0h32.156c.047.025.09.065.139.074C40.114.626 42 2.897 42 5.838V36.08c0 2.908-1.854 5.177-4.698 5.76-.083.018-.15.107-.224.161H4.922c-.087-.056-.168-.145-.264-.165-2.152-.483-3.617-1.753-4.371-3.822-.119-.327-.193-.671-.287-1.006zm22.35-18.312c0-.501.008-.89 0-1.279-.019-.621-.294-.887-.919-.89-1.203-.004-2.405 0-3.608 0-.725 0-1.003.282-1.003 1.022v15.47c0 .741.3 1.04 1.046 1.043 1.12.002 2.242 0 3.361 0 .851 0 1.107-.25 1.107-1.086 0-2.66-.012-5.32.006-7.98.007-.979.229-1.92.777-2.753.62-.948 1.523-1.328 2.632-1.24 1.175.093 1.997.705 2.29 1.836.211.82.31 1.688.323 2.535.04 2.564.011 5.13.011 7.693 0 .682.287.977.965.98 1.243.006 2.488.006 3.731 0 .659-.005.972-.325.972-.993-.002-2.866.002-5.729-.022-8.594-.011-1.308-.11-2.613-.47-3.883-.627-2.21-1.96-3.719-4.289-4.168a8.776 8.776 0 00-3.937.12c-1.095.291-1.98.895-2.671 1.784l-.3.38-.003.003zm-8.051 6.569v-7.65c0-.826-.274-1.092-1.111-1.092-1.12 0-2.24-.002-3.362 0-.73.002-1.048.32-1.05 1.046v15.42c0 .729.343 1.068 1.082 1.07 1.093.005 2.185 0 3.278 0 .867 0 1.158-.288 1.16-1.146v-7.648h.003zm.806-13.843c0-1.962-1.608-3.571-3.568-3.562-1.952.009-3.574 1.636-3.57 3.58.005 1.94 1.609 3.545 3.546 3.55 2.008.004 3.59-1.565 3.592-3.565v-.003z" fill="#fff"/></svg>